<svg width="55" height="91" viewBox="0 0 55 91" fill="none" xmlns="http://www.w3.org/2000/svg">
<g opacity="0.1">
<path d="M1.76122 90.3582C-4.79089 91.1129 -11.343 89.352 -18.1471 88.3457C-20.1631 88.0942 -21.6752 86.3333 -23.4392 85.0755C-26.7152 82.5599 -26.7152 82.0568 -24.1952 78.535C-22.6832 76.7741 -21.9272 74.7616 -20.9191 72.4976C-20.1631 70.4851 -18.6511 68.9757 -17.3911 67.4664C-15.6271 64.9508 -14.115 62.4352 -12.351 59.9196C-9.07495 55.14 -5.7989 50.612 -2.77485 45.5808C-1.01082 42.5621 1.25721 39.5434 4.02926 37.0278C4.53326 36.5247 5.03727 35.77 5.28928 35.2669C6.29729 33.506 7.55731 31.7451 9.06934 30.4873C10.8334 28.978 11.5894 26.7139 12.8494 24.953C16.1255 20.6765 17.3855 15.3938 20.1575 10.8658C21.1655 9.35641 21.9215 7.84706 22.9296 6.08616C23.6856 4.57681 24.4416 3.31901 24.1896 1.55811C23.9376 0.551872 25.1976 -0.202803 26.4576 0.0487557C27.7176 0.300314 28.7257 1.30655 29.7337 2.06122C33.2617 4.32525 37.0418 6.08616 39.5618 9.60797C41.8299 12.8782 44.0979 16.1485 46.3659 19.4187C49.894 24.953 52.666 30.9904 53.9261 37.7825C55.4381 44.323 54.9341 51.1151 53.4221 57.4041C52.666 59.9196 51.91 62.6868 50.146 64.6992C49.894 65.4539 49.642 65.7055 49.642 66.2086C46.3659 73.2522 41.0739 78.535 34.7738 83.063C28.7257 87.5911 21.9215 89.352 14.6134 90.1066C10.3294 90.3582 6.29729 90.6098 1.76122 90.3582ZM34.0177 8.8533C34.0177 9.10486 34.2697 9.60797 34.5217 9.35641C35.0258 9.10486 34.5217 8.8533 34.0177 8.8533C34.0177 8.35018 33.7657 8.09862 33.5137 8.35018C33.7657 8.60174 34.0177 8.8533 34.0177 8.8533ZM14.6134 28.7264C17.3855 26.2108 19.6535 23.4437 20.9135 19.9219C21.6695 17.9094 23.1816 16.1485 24.4416 14.3876C24.9456 13.3813 26.2056 12.8782 27.2136 12.1236C27.9696 11.6204 28.4736 11.6204 29.4817 12.1236C32.0017 13.3813 33.5137 15.6454 34.0177 18.4125C34.5217 21.4312 35.5298 23.6952 37.0418 26.2108C38.0498 27.9717 37.2938 29.7326 36.2858 31.4935C35.2778 32.7513 34.0177 32.7513 32.7577 32.2482C29.7337 31.242 26.4576 31.9967 23.4336 32.4998C20.9135 33.0029 18.6455 33.506 16.1255 33.2545C14.6134 33.0029 13.6054 32.7513 13.6054 31.242C10.8334 33.506 8.56533 36.0216 7.05331 39.0403C7.05331 39.2919 6.8013 39.2919 6.5493 39.5434C3.77725 41.8074 1.76122 44.5746 0.249195 47.5933C-2.77485 52.876 -6.30291 57.4041 -9.57896 62.4352C-10.839 64.1961 -11.595 66.2086 -13.107 67.9695C-16.1311 71.7429 -18.6511 75.5163 -20.4151 79.7928C-14.367 82.0568 -8.31894 81.8052 -2.01884 82.0568C1.00521 82.0568 4.28126 82.0568 7.30531 81.5537C11.0854 81.0505 14.6134 80.2959 17.8895 78.7865C22.9296 76.7741 27.2136 74.0069 31.2457 70.2335C31.7497 69.7304 32.0017 69.4789 32.5057 68.9757C35.0258 66.2086 36.5378 62.6868 38.8058 59.9196C41.0739 57.1525 41.8299 53.6307 42.8379 50.3604C43.8459 46.587 42.8379 42.5621 42.8379 38.5372C43.0899 35.2669 42.0819 32.4998 40.8218 29.4811C39.5618 26.4624 38.0498 23.1921 37.0418 19.9219C35.0258 14.3876 31.7497 9.85953 27.2136 5.58304C25.7016 9.10486 23.6856 11.872 22.1735 14.8907C19.6535 19.4187 17.6375 24.1984 14.6134 28.7264C14.6134 28.4749 14.3614 28.7264 14.6134 28.7264C14.6134 28.978 14.6134 28.7264 14.6134 28.7264ZM-22.6832 81.5537C-22.6832 82.3083 -21.9272 82.5599 -21.6752 82.8114C-19.6591 84.8239 -17.1391 85.5786 -14.115 85.8302C-9.83097 86.3333 -5.7989 87.0879 -1.51483 87.0879C5.03727 87.3395 11.8414 87.3395 18.3935 86.0817C23.4336 85.0755 28.4736 83.5661 32.7577 80.2959C35.7818 78.0318 38.3018 75.5163 40.8218 73.0007C44.6019 69.2273 46.6179 64.6992 49.138 60.1712C50.902 57.1525 50.902 53.3791 51.658 50.1089C52.162 47.8448 52.414 45.3293 51.91 43.0652C51.658 41.8074 51.406 40.2981 51.154 38.7887C50.902 35.77 49.894 33.0029 48.886 30.2358C47.122 26.2108 44.8539 22.1859 42.3339 18.4125C40.5698 16.1485 39.0578 13.6329 37.5458 11.3689C36.7898 10.3626 36.0338 9.35641 34.7738 8.8533C34.7738 9.60797 35.0258 9.85953 35.2778 10.1111C37.2938 13.3813 39.3098 16.6516 40.3178 20.425C40.8218 22.1859 41.8299 23.9468 42.5859 25.7077C44.0979 29.2295 45.8619 32.7513 45.6099 36.5247C45.6099 38.0341 45.3579 39.5434 45.6099 41.0528C46.6179 46.0839 45.3579 50.8635 43.5939 55.6432C42.5859 58.6618 40.0658 60.6743 38.8058 63.4415C36.5378 67.9695 33.0097 71.4913 29.2297 74.51C25.7016 77.2772 21.1655 79.5412 16.8815 81.0505C8.56533 83.8177 -0.00280762 84.3208 -8.82295 83.5661C-13.611 84.0692 -18.1471 83.5661 -22.6832 81.5537ZM18.1415 29.9842C19.9055 29.9842 21.6695 29.2295 23.1816 28.978C26.2056 28.4748 28.9777 28.2233 32.0017 28.978C32.5057 29.2295 33.5137 29.7326 34.0177 28.7264C34.7738 27.7202 34.2697 27.2171 33.7657 26.4624C32.5057 24.4499 31.2457 22.1859 30.9937 19.6703C30.9937 18.161 30.2377 16.9032 29.4817 15.6454C28.9777 14.8907 28.2216 14.3876 27.4656 15.3938C25.9536 16.9032 24.9456 18.6641 23.9376 20.6765C22.4255 23.6952 21.1655 26.7139 18.6455 28.978C18.1415 29.2295 17.8895 29.4811 18.1415 29.9842Z" fill="#070707"/>
<path d="M34.0178 8.85327C33.7658 8.60171 33.7658 8.60171 33.5138 8.35015C34.0178 8.09859 34.2698 8.35015 34.0178 8.85327C34.2698 8.85327 34.2698 8.85327 34.0178 8.85327Z" fill="#FCFCFC"/>
<path d="M34.2697 8.60156C34.5217 8.85312 35.0257 8.85312 34.5217 9.35624C34.5217 9.60779 34.2697 9.10468 34.2697 8.60156C34.2697 8.85312 34.2697 8.85312 34.2697 8.60156Z" fill="#FCFCFC"/>
<path d="M14.6135 28.7263C14.6135 28.7263 14.6135 28.9778 14.6135 28.7263C14.3615 28.7263 14.6135 28.4747 14.6135 28.7263C14.6135 28.4747 14.6135 28.4747 14.6135 28.7263Z" fill="#FCFCFC"/>
<path d="M24.1896 35.0154C26.2057 34.7638 28.4737 35.2669 30.7418 34.2607C30.9938 34.0091 31.4978 34.0091 31.7498 34.2607C34.0178 36.0216 37.0419 36.2732 38.3019 39.2919C39.5619 41.8074 40.0659 44.323 39.3099 47.3417C38.8059 49.8573 38.0499 52.1213 36.0338 53.8822C32.5058 56.9009 30.2377 60.6743 28.2217 64.6993C27.2137 66.7117 24.6937 67.2148 22.6776 67.4664C19.6536 67.718 17.3855 66.4602 15.8735 63.693C14.8655 61.6806 12.8495 60.4228 10.8334 59.6681C8.06139 58.4103 5.79335 56.6494 4.02932 54.1338C3.52531 53.3791 3.02131 52.6244 1.76129 52.6244C0.501266 52.6244 0.249262 51.1151 1.00527 50.3604C2.01329 49.3542 2.5173 48.0964 3.77732 47.5933C4.28133 47.3417 4.53333 46.8386 4.53333 46.3355C5.03734 44.323 6.54937 42.8137 7.05337 40.8012C7.30538 40.2981 7.55738 39.795 8.06139 39.5434C9.82542 38.7887 11.3374 37.2794 13.3535 37.2794C15.6215 37.2794 17.3855 35.77 19.6536 35.5185C21.1656 35.2669 22.4256 35.0154 24.1896 35.0154ZM37.0419 44.5746C36.7899 42.3106 36.0338 40.0465 33.5138 38.5372C32.0018 37.7825 30.4898 37.2794 28.9777 37.7825C27.9697 38.0341 26.9617 37.7825 25.9537 37.7825C24.1897 37.7825 22.6776 37.7825 20.9136 38.0341C18.6456 38.2856 16.8815 39.795 14.6135 39.795C11.8415 39.795 9.82542 41.3043 8.8174 44.0715C8.31339 45.5808 7.55738 47.3417 6.80137 48.8511C5.54135 51.1151 5.54135 51.1151 6.80137 53.1276C7.80939 54.6369 9.06941 55.8947 10.8334 56.6494C14.1095 58.1587 17.1335 59.9196 18.8976 63.4415C19.6536 64.6993 21.1656 64.9508 22.4256 64.6993C23.9376 64.4477 25.4497 64.1961 26.2057 62.6868C27.7177 59.165 29.7337 55.6432 32.7578 53.3791C35.5298 50.8635 36.2858 47.8448 37.0419 44.5746Z" fill="#070707"/>
<path d="M1.50917 77.5286C1.00516 77.5286 0.753156 77.5286 0.249147 77.5286C-1.76689 77.2771 -3.78292 77.0255 -5.54694 78.5349C-6.30296 79.2895 -7.56298 79.038 -8.57099 78.5349C-10.083 77.7802 -11.595 77.7802 -12.8551 76.5224C-13.3591 76.0193 -13.8631 75.5162 -13.8631 75.0131C-14.1151 71.7428 -14.3671 68.4725 -11.595 65.957C-8.571 63.4414 -6.55496 60.1711 -4.79093 56.6493C-3.02691 53.6306 -0.758869 54.1337 1.50917 55.6431C4.28121 57.6555 7.30526 59.4164 10.5813 60.9258C13.8574 62.6867 15.8734 66.9632 14.8654 70.485C14.3614 72.2459 12.3453 73.7553 10.5813 73.7553C9.06929 73.7553 7.55727 73.7553 6.80126 75.5162C6.29725 76.2708 5.54123 76.774 4.53322 76.774C3.77721 77.5286 2.51718 77.5286 1.50917 77.5286ZM1.76117 74.7615C2.51719 74.5099 4.02921 75.5162 4.78522 74.2584C6.04524 71.9944 8.06128 71.7428 10.3293 71.7428C11.5893 71.7428 12.0933 70.9881 12.3453 69.9819C12.8494 67.2148 11.3373 64.6992 8.56528 63.4414C7.30526 62.9383 6.29725 62.4351 5.03723 61.6805C3.2732 60.4227 1.50917 59.668 -0.254861 58.4102C-1.01087 57.9071 -1.51488 57.9071 -2.27089 58.6618C-3.02691 59.668 -3.27891 60.9258 -4.03492 61.932C-5.54695 64.6992 -8.06699 66.4601 -9.83102 68.9757C-10.587 69.9819 -11.343 71.2397 -11.847 72.4975C-12.0991 73.5037 -12.0991 74.7615 -10.839 75.0131C-9.075 75.5162 -7.56298 77.2771 -5.79895 75.5162C-4.79093 74.5099 -3.78292 74.0068 -2.5229 74.5099C-1.01087 74.7615 0.249148 74.7615 1.76117 74.7615Z" fill="#070707"/>
</g>
</svg>
