<svg width="175" height="148" viewBox="0 0 175 148" fill="none" xmlns="http://www.w3.org/2000/svg">
<g opacity="0.1">
<path d="M141.932 92.0222C144.248 94.7636 142.46 97.1906 140.387 98.8265C138.44 100.194 136.459 100.235 134.461 99.6118L134.193 99.4845C131.694 99.934 130.448 97.702 129.219 96.1335C128.257 94.6924 126.777 93.6603 125.422 92.3601C125.422 92.3601 125.155 92.2328 124.887 92.1054C124.102 92.3871 122.906 92.146 122.263 92.8231C122.689 94.0096 123.509 95.0552 124.454 95.8327C125.399 96.6101 125.825 97.7965 126.645 98.8422C127.197 99.7605 126.195 101.906 125.033 102.992C123.103 105.023 120.854 104.937 118.338 104.722C117.41 104.609 115.964 104.904 115.161 104.522C114.894 104.395 114.359 104.14 114.091 104.013C112.594 102.317 110.705 100.762 109.458 98.5299C109.174 97.7389 108.639 97.4842 108.087 96.566C107.393 95.2522 106.59 94.8702 105.554 95.6882C104.517 96.5062 103.464 96.6606 102.269 96.4194C103.623 97.7197 104.727 99.5563 106.082 100.857C107.437 102.157 108.006 103.739 108.449 105.589C108.876 106.775 108.107 107.721 106.803 108.411C103.928 109.665 100.894 109.86 97.7344 110.323C96.2884 110.618 95.2013 109.445 93.9889 108.541C93.7214 108.413 93.0441 107.763 92.2415 107.381C91.4389 106.999 91.0291 106.476 90.7446 105.685C89.3561 103.058 87.0567 100.98 86.1863 97.9437C85.167 99.4253 84.1138 99.5797 82.7761 98.9431C82.241 98.6884 81.4384 98.3065 81.0625 99.1109C80.8119 99.6472 81.6145 100.029 81.7568 100.425C83.6634 102.643 85.4447 105.13 87.3513 107.349C87.7611 107.871 88.0287 107.999 88.4384 108.521C89.793 109.822 89.8439 111.813 88.557 113.167C85.5904 116.016 81.7874 117.157 77.5407 116.447C76.6128 116.333 76.3283 115.542 75.7933 115.287C74.1711 113.86 72.2814 112.305 70.6593 110.877C68.2345 109.068 67.2389 106.299 65.4575 103.813C64.9055 102.894 64.7464 101.835 64.1943 100.917C64.0521 100.521 64.0521 100.521 63.517 100.267C60.7164 99.2617 58.952 97.4386 57.4382 95.0792C55.6569 92.5925 53.3574 90.5148 51.1833 88.1689C49.2936 86.614 47.922 84.6501 46.6758 82.4181C44.8945 79.9313 42.8625 77.981 41.474 75.3534C40.2278 73.1213 39.2491 71.0166 38.3957 68.6437C37.9689 67.4573 37.5422 66.2708 36.9902 65.3525C35.3511 63.2613 34.3724 61.1566 34.3047 58.502C34.1116 56.1156 32.7401 54.1517 31.2432 52.4559C29.6041 50.3647 27.5722 48.4143 25.9331 46.3231C25.3811 45.4048 24.4532 45.291 23.9012 44.3727C21.4426 41.2359 21.4832 37.6495 22.577 33.9088C22.9529 33.1043 23.3288 32.2998 23.4371 31.368C23.5455 30.4362 24.1889 29.759 25.0999 29.2092C26.8135 29.0413 28.3679 27.8143 30.2067 27.3783C32.8313 26.6606 35.3644 27.5384 38.0228 28.148C40.6812 28.7576 43.4819 29.7626 45.9066 31.5722C47.119 32.477 48.8495 32.9727 50.5631 32.8049C52.937 32.6235 55.1687 32.0466 57.4174 32.1334C60.0589 32.0794 62.575 32.2935 65.2335 32.9031C67.3568 33.258 68.8536 34.9538 70.4758 36.3813C71.8304 37.6816 73.4187 37.7819 75.1492 38.2777C75.6843 38.5323 76.0771 38.3915 76.1855 37.4597C76.1685 36.796 76.6866 36.387 77.364 37.0372C77.6315 37.1645 77.6315 37.1645 77.899 37.2918C79.8632 36.5876 81.9865 36.9426 83.8254 36.5066C85.0039 36.084 86.0741 36.5933 87.1442 37.1026C88.4819 37.7393 89.8195 38.3759 91.1572 39.0125C92.1021 39.7899 93.03 39.9037 93.8156 39.6221C95.1364 39.595 96.4571 39.568 97.6356 39.1455C100.653 38.287 103.294 38.2329 106.112 39.9016C107.985 40.7929 110.108 41.1479 112.072 40.4437C115.09 39.5851 117.623 40.4629 119.512 42.0178C122.205 43.9547 124.772 46.1597 126.821 48.7737C128.192 50.7376 129.957 52.5607 131.972 53.8475C134.129 55.5297 135.768 57.6209 137.407 59.7121C139.866 62.849 142.324 65.9858 145.176 68.9818C145.585 69.5046 145.853 69.632 145.87 70.2956C146.74 73.3321 149.04 75.4098 151.214 77.7557C152.711 79.4515 153.547 81.1607 154.651 82.9973C154.793 83.3928 154.936 83.7883 155.203 83.9156C156.131 84.0294 155.881 84.5657 155.362 84.9747C155.237 85.2429 155.112 85.511 155.112 85.511C155.647 85.7657 155.898 85.2294 156.165 85.3567C156.558 85.2159 156.951 85.075 156.968 85.7387C157.11 86.1341 156.592 86.5431 156.324 86.4158C155.522 86.0338 155.539 86.6975 155.413 86.9657C153.859 88.1926 154.929 88.7019 155.749 89.7475C157.245 91.4433 158.742 93.139 160.114 95.1029C161.076 96.544 160.842 97.744 159.145 98.5755C157.181 99.2797 155.217 99.9839 153.236 100.024C151.522 100.192 149.917 99.4283 149.081 97.7191C148.244 96.0098 146.764 94.9777 145.535 93.4093C144.431 91.5727 143.361 91.0634 141.932 92.0222ZM93.623 89.0269C92.8373 89.3085 92.4614 90.113 91.9433 90.522C92.729 90.2403 93.3724 89.5632 93.623 89.0269C93.8905 89.1542 94.0158 88.886 94.1411 88.6179C93.8736 88.4905 93.7483 88.7587 93.623 89.0269ZM132.825 82.116C131.772 82.2703 131.271 83.3429 130.36 83.8928C131.162 84.2747 131.43 84.4021 131.806 83.5976C132.056 83.0613 132.575 82.6523 132.825 82.116C133.093 82.2433 133.218 81.9751 132.825 82.116C132.95 81.8478 132.95 81.8478 132.825 82.116ZM151.007 85.1966C151.935 85.3104 152.22 86.1014 152.897 86.7515C153.039 87.147 153.574 87.4017 153.825 86.8654C154.343 86.4564 154.201 86.0609 153.541 86.0744C153.273 85.9471 153.005 85.8197 153.398 85.6789C154.292 84.4654 153.222 83.9561 153.205 83.2925C152.294 83.8423 151.509 84.124 151.007 85.1966C150.865 84.8011 150.865 84.8011 151.007 85.1966C150.74 85.0693 150.74 85.0693 151.007 85.1966ZM75.3327 112.774L75.6002 112.901C75.3327 112.774 75.458 112.505 75.3327 112.774C76.9785 109.951 79.1933 108.711 82.2276 108.516C83.5483 108.489 84.7268 108.066 86.1898 108.435C84.5507 106.343 83.0369 103.984 81.005 102.034C80.1854 100.988 79.3659 99.9424 78.797 98.3605C78.2449 97.4422 75.5527 95.5053 74.767 95.787C72.8028 96.4912 70.6795 96.1362 68.8406 96.5723C68.4478 96.7131 68.0549 96.8539 67.5368 97.2629C65.3559 99.8307 65.3559 99.8307 66.8866 102.854L67.0289 103.249C68.2582 104.818 68.7018 106.668 69.9311 108.236C71.8208 109.791 73.3177 111.487 75.3327 112.774ZM113.688 46.7849C113.955 46.9122 113.955 46.9122 113.688 46.7849C113.938 46.2486 114.189 45.7123 114.172 45.0486C114.155 44.385 114.406 43.8487 114.941 44.1033C115.476 44.358 115.35 44.6261 115.1 45.1624C114.866 46.3624 114.758 47.2942 114.524 48.4942C114.274 49.0305 114.809 49.2851 115.202 49.1443C115.469 49.2716 115.594 49.0035 115.452 48.608C115.577 48.3398 115.577 48.3398 115.703 48.0717C115.953 47.5353 115.527 46.3489 116.597 46.8582C117.399 47.2402 116.631 48.1855 116.505 48.4536C115.879 49.7944 116.163 50.5854 117.376 51.4902C117.626 50.9539 117.484 50.5584 117.735 50.0221C117.592 49.6266 117.575 48.9629 118.503 49.0767C119.164 49.0632 118.788 49.8677 118.93 50.2632C118.571 51.7313 118.087 53.4676 119.96 54.3589C120.21 53.8225 120.319 52.8907 120.302 52.2271C120.427 51.9589 120.41 51.2953 120.945 51.5499C121.338 51.4091 121.355 52.0727 121.23 52.3409C121.104 52.6091 121.246 53.0045 120.996 53.5409C120.119 55.418 120.295 57.1408 121.524 58.7092C121.758 57.5092 122.134 56.7047 122.367 55.5048C122.618 54.9684 122.618 54.9684 123.011 54.8276C123.671 54.8141 123.813 55.2096 123.563 55.7459C123.062 56.8185 123.363 58.2731 122.202 59.3593C122.076 59.6275 122.076 59.6275 122.076 59.6275C122.486 60.1503 122.645 61.2094 123.448 61.5914C123.607 62.6505 124.41 63.0325 125.354 63.8099C125.588 62.61 126.089 61.5373 126.323 60.3373C126.574 59.801 126.699 59.5329 126.966 59.6602C127.627 59.6467 127.376 60.183 127.251 60.4512C127.142 61.383 127.034 62.3148 126.533 63.3874C126.032 64.46 126.191 65.5192 127.136 66.2966C127.136 66.2966 127.01 66.5648 127.403 66.4239L127.529 66.1558C127.904 65.3513 128.138 64.1513 128.514 63.3469C128.639 63.0787 128.622 62.4151 129.157 62.6697C129.693 62.9244 129.567 63.1925 129.317 63.7288C128.941 64.5333 128.958 65.197 128.582 66.0014C128.331 66.5378 128.081 67.0741 128.098 67.7377C128.934 69.447 130.163 71.0154 131.267 72.852C131.359 71.2565 131.718 69.7884 132.344 68.4476C132.47 68.1794 132.453 67.5158 132.988 67.7705C133.523 68.0251 133.397 68.2933 133.147 68.8296C132.788 70.2977 132.554 71.4977 131.928 72.8385C131.552 73.6429 131.569 74.3066 131.995 75.493C132.605 73.4886 133.482 71.6115 134.234 70.0025C134.359 69.7344 134.075 68.9434 134.61 69.198C135.145 69.4527 135.287 69.8482 135.036 70.3845C134.285 71.9934 133.8 73.7297 133.049 75.3387C132.155 76.5522 132.832 77.2023 133.384 78.1206C133.526 78.5161 133.794 78.6434 134.187 78.5026L134.437 77.9662C134.921 76.2299 135.263 74.0982 135.748 72.3619C135.998 71.8256 136.374 71.0211 136.625 70.4848C136.75 70.2166 137.143 70.0758 137.41 70.2031C137.946 70.4578 137.553 70.5986 137.302 71.1349C137.051 71.6712 136.926 71.9394 136.676 72.4757C136.066 74.4802 135.724 76.6119 135.24 78.3482C134.989 78.8845 134.739 79.4208 134.881 79.8163C135.558 80.4665 135.717 81.5256 136.52 81.9076C137.322 82.2895 137.465 82.685 137.482 83.3486C137.874 83.2078 138 82.9397 138.125 82.6715C138.752 81.3307 139.111 79.8626 139.737 78.5218C139.988 77.9855 140.238 77.4491 141.041 77.8311C141.576 78.0857 141.058 78.4947 140.807 79.0311L140.682 79.2992C139.93 80.9082 139.856 83.1673 138.301 84.3943C138.301 84.3943 137.908 84.5351 138.176 84.6624C138.853 85.3125 138.352 86.3852 139.029 87.0353C139.707 87.6855 139.456 88.2218 138.545 88.7716C139.49 89.5491 140.401 88.9992 141.329 89.113C142.257 89.2268 142.775 88.8178 142.348 87.6314C142.223 87.8996 142.223 87.8996 142.223 87.8996C142.098 88.1677 141.579 88.5767 141.312 88.4494C141.044 88.3221 141.295 87.7857 141.42 87.5176C141.796 86.7131 142.565 85.7678 142.941 84.9633C143.066 84.6952 143.317 84.1588 143.852 84.4135C144.387 84.6681 144.404 85.3318 144.011 85.4726C143.886 85.7408 143.493 85.8816 143.902 86.4044C145.064 85.3183 146.226 84.2321 147.387 83.1459C147.905 82.737 148.423 82.328 148.833 82.8508C149.653 83.8964 150.029 83.0919 150.279 82.5556C150.797 82.1466 151.316 81.7376 151.976 81.7241C150.337 79.6328 148.572 77.8098 146.933 75.7185C145.579 74.4183 145.528 72.4274 144.173 71.1271C141.447 67.8629 138.721 64.5988 136.12 61.0665C134.481 58.9752 132.574 56.7567 130.292 55.3426C128.812 54.3105 127.457 53.0103 126.353 51.1737C125.659 49.8599 124.572 48.687 123.234 48.0503C122.432 47.6684 121.612 46.6228 120.935 45.9726C118.351 43.1039 114.748 41.7169 111.229 43.6481C112.157 43.7619 112.049 44.6937 112.726 45.3438L112.851 45.0757C113.102 44.5393 113.352 44.003 113.888 44.2577C114.423 44.5123 113.904 44.9213 114.047 45.3168C113.654 45.4576 113.671 46.1213 113.688 46.7849ZM121.006 85.0138C121.165 86.0729 121.057 87.0047 121.216 88.0638L121.484 88.1911C122.486 86.0459 123.489 83.9006 124.491 81.7553C126.096 82.5192 124.132 83.2234 124.684 84.1417C125.47 83.86 125.846 83.0556 126.381 83.3102C126.916 83.5649 127.041 83.2967 127.434 83.1559C128.203 82.2105 129.239 81.3926 129.882 80.7154C130.275 80.5746 130.258 79.9109 130.793 80.1656C131.203 80.6884 130.685 81.0974 130.56 81.3655C129.916 82.0427 129.005 82.5925 128.236 83.5378L128.111 83.806L128.379 83.9333C128.914 84.188 129.164 83.6516 129.29 83.3835C130.058 82.4382 130.969 81.8883 131.613 81.2112C132.131 80.8022 132.917 80.5205 133.076 81.5796C132.95 81.8478 133.218 81.9751 133.343 81.707C133.469 81.4388 133.861 81.298 133.594 81.1706C133.326 81.0433 133.184 80.6478 133.184 80.6478C131.972 79.7431 131.152 78.6974 130.583 77.1155C129.605 75.0108 129.019 72.7652 127.647 70.8013C126.276 68.8374 125.297 66.7326 123.8 65.0369C121.626 62.691 120.112 60.3316 118.849 57.4359C118.28 55.854 117.318 54.4129 116.231 53.24C114.057 50.8941 112.15 48.6755 110.887 45.7798C110.443 43.9297 109.214 42.3613 106.965 42.2745C106.305 42.2881 105.895 41.7653 105.36 41.5106C104.29 41.0013 103.095 40.7602 102.041 40.9145C99.7928 40.8277 97.7034 41.8001 95.4717 42.3769C98.2893 44.0457 99.9453 46.8005 101.601 49.5554C101.818 47.6918 102.445 46.351 103.339 45.1375C103.464 44.8694 103.714 44.333 104.25 44.5877C104.785 44.8423 104.534 45.3787 104.283 45.915C103.782 46.9876 103.281 48.0603 102.78 49.1329C101.886 50.3464 102.187 51.801 103.007 52.8466C103.559 53.7649 104.253 55.0787 105.073 56.1243C105.215 56.5197 105.767 57.438 106.285 57.029C106.678 56.8882 106.928 56.3519 106.911 55.6882C107.287 54.8838 107.788 53.8111 108.164 53.0066C108.29 52.7385 108.54 52.2022 109.075 52.4568C109.61 52.7115 109.092 53.1205 108.967 53.3886C108.716 53.9249 108.608 54.8567 108.357 55.3931C107.856 56.4657 107.355 57.5383 106.444 58.0882C106.854 58.611 107.264 59.1338 107.548 59.9247C107.924 59.1203 107.907 58.4566 108.158 57.9203C108.534 57.1158 108.767 55.9159 109.411 55.2387C109.536 54.9705 109.929 54.8297 110.196 54.957C110.464 55.0844 110.339 55.3525 110.213 55.6207C109.587 56.9615 108.96 58.3023 108.334 59.6431C108.083 60.1794 107.816 60.0521 107.155 60.0656C107.833 60.7157 107.992 61.7748 108.794 62.1568C109.688 60.9433 109.655 59.616 110.281 58.2753C110.406 58.0071 110.389 57.3434 110.924 57.5981C111.46 57.8527 111.334 58.1209 111.351 58.7845C111.243 59.7163 111.009 60.9163 110.24 61.8616C109.472 62.8069 109.756 63.5979 110.701 64.3754C111.327 63.0346 111.686 61.5664 112.313 60.2256C112.438 59.9575 112.421 59.2938 112.956 59.5485C113.491 59.8031 113.366 60.0713 113.241 60.3395C112.865 61.1439 112.757 62.0757 112.381 62.8802C110.969 64.5027 111.537 66.0846 112.625 67.2576C112.892 67.3849 112.767 67.653 112.767 67.653C113.319 68.5713 113.603 69.3623 114.673 69.8716C115.385 71.849 116.363 73.9537 117.985 75.3813C118.805 76.4269 119.198 76.2861 120.092 75.0726C120.468 74.2682 120.844 73.4637 121.22 72.6592C121.345 72.391 121.863 71.982 122.131 72.1094C122.666 72.364 122.415 72.9003 122.29 73.1685C121.788 74.2411 121.287 75.3138 120.376 75.8636C118.947 76.8224 119.374 78.0089 119.926 78.9272C120.353 80.1136 120.512 81.1727 120.796 81.9637C120.83 83.291 120.722 84.2228 121.006 85.0138ZM77.5842 45.6645C77.4589 45.9327 77.4588 45.9327 77.7264 46.06C79.4908 47.8831 80.3442 50.256 81.5904 52.488C82.8367 54.7201 83.6901 57.093 84.6688 59.1977C85.0955 60.3842 86.3079 61.289 86.7346 62.4754C87.7133 64.5802 88.5498 66.2894 89.9214 68.2533C90.3312 68.7761 90.7409 69.2989 91.1507 69.8217C92.8067 72.5766 94.5881 75.0633 96.6369 77.6774C99.0955 80.8142 102.215 83.9375 102.458 88.3149C102.601 88.7103 102.618 89.374 103.278 89.3605C103.938 89.347 103.688 89.8833 103.17 90.2923C102.259 90.8421 101.365 92.0556 100.454 92.6054C99.5427 93.1553 100.488 93.9327 100.237 94.469C100.112 94.7372 100.789 95.3873 101.182 95.2465C102.77 95.3468 104.358 95.4471 105.645 94.0928C104.023 92.6652 104.023 92.6652 102.469 93.8922C102.343 94.1603 102.076 94.033 101.95 94.3012C101.558 94.442 101.432 94.7102 100.897 94.4555C100.488 93.9327 100.88 93.7919 101.273 93.651C102.452 93.2285 102.401 91.2376 103.847 90.9424C103.955 90.0106 104.331 89.2061 104.975 88.529C105.1 88.2608 105.225 87.9927 104.958 87.8653C104.423 87.6107 104.548 87.3425 104.673 87.0744C105.174 86.0017 105.676 84.9291 106.177 83.8564C106.302 83.5883 106.285 82.9246 106.82 83.1793C107.355 83.4339 107.105 83.9703 106.979 84.2384C106.603 85.0429 106.228 85.8474 105.994 87.0473C106.905 86.4975 107.423 86.0885 108.066 85.4114C108.459 85.2705 108.585 85.0024 109.12 85.257C109.529 85.7798 109.655 85.5116 110.048 85.3708C110.566 84.9618 111.209 84.2847 111.995 84.003C112.388 83.8621 112.906 83.4532 113.048 83.8486C113.725 84.4988 114.243 84.0898 114.762 83.6808C115.154 83.5399 115.547 83.3991 115.689 83.7946C115.832 84.1901 115.439 84.3309 115.314 84.5991C114.403 85.1489 113.492 85.6987 112.848 86.3759C113.383 86.6305 113.901 86.2215 114.027 85.9534C114.938 85.4035 115.581 84.7264 116.617 83.9084C117.01 83.7676 117.261 83.2312 117.796 83.4859C118.331 83.7405 117.545 84.0222 117.688 84.4177C118.08 84.2768 118.598 83.8679 118.991 83.727C119.384 83.5862 119.509 83.318 119.367 82.9225C119.066 81.4679 118.622 79.6178 118.321 78.1632C117.552 79.1085 116.892 79.1221 117.142 78.5857C117.501 77.1176 116.289 76.2128 115.737 75.2945C113.512 70.9577 111.036 67.1573 108.293 63.2295C106.905 60.6019 105.123 58.1152 103.342 55.6285C101.828 53.2691 100.565 50.3734 99.0513 48.014C96.5757 44.2135 93.5989 41.4857 89.5859 39.5758C87.1781 38.4299 84.8041 38.6113 82.1627 38.6654C81.1095 38.8197 80.3238 39.1014 79.3959 38.9876C78.0751 39.0146 77.005 38.5053 75.8434 39.5914C75.7181 39.8596 75.1831 39.605 74.5227 39.6185C74.1299 39.7593 73.3273 39.3773 72.5247 38.9954C73.3442 40.041 73.6287 40.832 74.306 41.4821C75.2678 42.9232 76.2295 44.3643 77.5842 45.6645ZM53.6245 38.8509C53.4992 39.1191 53.4992 39.1191 53.6245 38.8509C53.7668 39.2464 53.8921 38.9783 53.6245 38.8509C54.0004 38.0465 54.3763 37.242 54.7522 36.4375C54.8775 36.1693 55.2534 35.3649 55.7885 35.6195C56.3236 35.8742 56.073 36.4105 55.8224 36.9468C55.3212 38.0194 54.9622 39.4876 54.7286 40.6875C55.1045 39.883 55.3551 39.3467 55.7309 38.5422C55.8562 38.2741 56.2491 38.1332 56.5166 38.2606C56.7841 38.3879 56.6589 38.656 56.5336 38.9242C56.1577 39.7287 56.1746 40.3923 55.7987 41.1968C55.1722 42.5376 55.1722 42.5376 56.5099 43.1742C56.6013 41.5788 56.9603 40.1107 57.8543 38.8972C57.9796 38.629 58.1049 38.3609 58.3724 38.4882C58.64 38.6155 58.7822 39.011 58.6569 39.2792C58.4063 39.8155 58.0304 40.62 58.0473 41.2836C57.939 42.2154 57.4378 43.288 57.597 44.3472C57.7223 44.079 57.8476 43.8108 57.9729 43.5427C58.2235 43.0064 57.922 41.5518 58.8499 41.6656C59.6526 42.0475 58.8838 42.9928 58.7755 43.9247C58.6671 44.8565 58.3996 44.7291 59.3444 45.5066C59.3105 44.1793 60.3468 43.3613 60.5805 42.1613C60.8311 41.625 60.6888 41.2295 61.2239 41.4842C61.759 41.7388 61.9012 42.1343 61.6506 42.6706C61.1494 43.7433 60.7735 44.5478 60.5399 45.7477C60.164 46.5522 59.7881 47.3567 60.7329 48.1341C60.7329 48.1341 60.7329 48.1341 60.8751 48.5296L61.0004 48.2615C61.3763 47.457 61.3594 46.7933 61.7353 45.9889C61.8606 45.7207 61.9859 45.4525 62.521 45.7072C63.056 45.9618 62.6632 46.1027 62.8054 46.4981C62.4295 47.3026 62.4465 47.9663 62.0706 48.7707C61.6947 49.5752 61.8369 49.9707 62.2467 50.4935C62.6226 49.689 62.4634 48.6299 63.2321 47.6846C63.3574 47.4164 63.608 46.8801 64.1431 47.1348C64.6782 47.3894 64.4276 47.9257 64.3023 48.1939C63.8011 49.2665 63.835 50.5938 63.3338 51.6665C63.0832 52.2028 63.1001 52.8664 63.9027 53.2484C64.2786 52.4439 64.387 51.5121 64.7629 50.7076C64.8882 50.4395 65.0135 50.1713 65.4063 50.0305C66.0667 50.017 65.8161 50.5533 65.9583 50.9488C65.5824 51.7532 65.5993 52.4169 65.2235 53.2214C64.7223 54.294 64.4886 55.494 65.701 56.3987C66.2022 55.3261 66.3105 54.3943 66.8117 53.3217C66.937 53.0535 67.0623 52.7853 67.5974 53.04C67.8649 53.1673 68.0072 53.5628 67.8819 53.8309C67.6313 54.3673 67.2554 55.1718 67.2723 55.8354C66.9134 57.3035 66.6797 58.5035 67.3739 59.8173L67.6415 59.9446L67.7668 59.6764C68.0004 58.4765 68.1088 57.5446 68.61 56.472C68.7353 56.2039 68.593 55.8084 68.9859 55.6675C69.6463 55.654 69.7885 56.0495 69.5379 56.5858C69.4295 57.5176 69.0536 58.3221 69.0706 58.9857C69.2297 60.0449 68.0682 61.131 69.1553 62.304C69.03 62.5721 69.2975 62.6994 69.565 62.8268C69.9579 62.6859 69.6903 62.5586 69.5481 62.1631C69.5142 60.8358 69.6056 59.2404 70.2321 57.8996C70.4827 57.3633 70.7333 56.827 71.5359 57.2089C72.071 57.4636 71.5529 57.8726 71.3023 58.4089C70.5505 60.0178 70.3338 61.8815 70.7774 63.7315C71.1533 62.9271 71.4039 62.3907 71.5123 61.4589C71.6376 61.1908 71.8882 60.6545 72.4232 60.9091C72.9583 61.1638 72.5655 61.3046 72.7077 61.7001C72.4571 62.2364 72.5993 62.6319 72.3488 63.1682C71.9898 64.6363 70.9705 66.118 71.9322 67.5591C71.9322 67.5591 71.8069 67.8272 72.0745 67.9545L72.1998 67.6864C72.4334 66.4864 72.6671 65.2865 72.9008 64.0865C73.0261 63.8183 73.2767 63.282 73.937 63.2685C74.5974 63.255 73.954 63.9321 74.2215 64.0595C74.506 64.8504 74.1301 65.6549 73.7542 66.4594C73.6458 67.3912 73.1446 68.4638 73.6966 69.3821C73.8219 69.114 74.0725 68.5776 74.1978 68.3095C74.0556 67.914 74.1809 67.6458 74.4484 67.7732C74.716 67.9005 74.9835 68.0278 75.1257 68.4233C75.268 68.8188 75.1427 69.0869 75.0174 69.3551C74.7837 70.5551 74.1572 71.8959 74.7262 73.4778C74.7262 73.4778 74.7262 73.4778 74.6009 73.7459C74.6009 73.7459 74.6009 73.7459 74.7262 73.4778C74.7262 73.4778 74.7262 73.4778 74.4586 73.3505C74.9768 72.9415 74.8345 72.546 74.9598 72.2778C75.0682 71.346 75.1765 70.4142 75.82 69.7371C75.9453 69.4689 75.9283 68.8053 76.4634 69.0599C76.9985 69.3146 76.8732 69.5827 76.8901 70.2464C76.6565 71.4463 76.565 73.0418 76.3314 74.2417C76.223 75.1735 76.2399 75.8372 76.6497 76.36C77.1679 75.951 76.7581 75.4282 76.8834 75.16C77.0087 74.8919 77.134 74.6237 77.4015 74.751C77.6691 74.8783 77.5438 75.1465 77.686 75.542C77.5776 76.4738 77.344 77.6738 77.2356 78.6056C77.002 79.8055 77.2864 80.5965 78.2313 81.3739C78.3227 79.7785 77.2187 77.9419 78.8984 76.4468C79.0237 76.1786 79.0067 75.515 79.8093 75.8969C80.3444 76.1516 80.0938 76.6879 79.9685 76.9561C79.0745 78.1695 79.2337 79.2287 79.2675 80.5559C79.4267 81.6151 79.5859 82.6742 79.0847 83.7468C78.9594 84.015 79.1016 84.4105 79.3692 84.5378C79.8704 83.4652 79.9787 82.5334 80.2124 81.3334C80.3377 81.0652 80.1954 80.6698 80.5883 80.5289C80.8558 80.6562 81.1233 80.7836 81.2656 81.179C81.1572 82.1109 81.4417 82.9018 81.3333 83.8336C80.7068 85.1744 80.7407 86.5017 81.435 87.8155C81.5772 88.211 80.6662 88.7608 81.7364 89.2701C82.3629 87.9293 82.9894 86.5885 83.3483 85.1204C83.5989 84.5841 83.8495 84.0477 84.3846 84.3024C85.0449 84.2889 84.4015 84.966 84.5438 85.3615C84.4693 87.6206 82.8065 89.7794 83.9275 92.2796C83.9275 92.2796 83.8022 92.5478 83.6769 92.8159C83.5516 93.0841 83.284 92.9568 83.0165 92.8294C82.6067 92.3066 81.8041 91.9247 81.3943 91.4019C80.3242 90.8926 79.5047 89.8469 79.2032 88.3923C78.4751 85.7513 77.3542 83.2511 76.1079 81.019C74.3097 77.8686 73.0295 74.3093 71.3566 70.8908C70.1103 68.6587 69.5075 65.7495 67.8684 63.6583C66.7813 62.4853 66.2124 60.9034 65.5181 59.5896C63.3101 55.9165 61.6202 51.8343 59.0193 48.302C58.6096 47.7792 58.1998 47.2564 57.9322 47.1291C56.7199 46.2243 55.5075 45.3195 54.8132 44.0057C53.4248 41.3782 51.3759 38.7642 49.5946 36.2774C48.3483 34.0454 47.2782 33.5361 46.208 33.0268C43.2482 30.9626 40.18 29.8302 36.5937 29.1068C34.2028 28.6245 31.8119 28.1423 29.2043 29.5236C28.2934 30.0734 27.5077 30.3551 26.5967 30.9049C24.6326 31.6091 24.2567 32.4136 24.1822 34.6727C24.7003 34.2637 24.6834 33.6001 25.2015 33.1911C25.0593 32.7956 25.5774 32.3866 25.7197 32.7821C25.8619 33.1775 25.7366 33.4457 25.6113 33.7139C24.7173 34.9273 24.0908 36.2681 23.4643 37.6089C22.8378 38.9497 23.1392 40.4043 23.4406 41.859C23.9418 40.7863 23.9249 40.1227 24.0332 39.1909C24.233 36.6636 25.5199 35.3093 27.4671 33.9415C27.8599 33.8006 27.9852 33.5325 28.395 34.0553C28.8048 34.5781 28.4119 34.7189 28.0191 34.8598C26.9828 35.6778 27.0167 37.0051 26.3902 38.3459C26.2649 38.614 26.2819 39.2777 26.1566 39.5458C25.4217 41.8184 25.3472 44.0775 27.1116 45.9006C27.1116 45.9006 27.2539 46.2961 27.3791 46.0279C27.3791 46.0279 27.3791 46.0279 27.2369 45.6324C26.9355 44.1778 27.0269 42.5824 27.3859 41.1142C27.7448 39.6461 27.9616 37.7825 29.3907 36.8237C29.7835 36.6828 30.0341 36.1465 30.4439 36.6693C30.5861 37.0648 30.4608 37.333 30.068 37.4738C28.1546 40.1689 27.8295 42.9643 28.6999 46.0009C28.8591 47.06 28.5915 46.9327 27.6636 46.8189C28.4662 47.2008 28.4832 47.8645 29.2858 48.2464C29.2688 47.5828 29.1266 47.1873 29.3772 46.651C29.4686 45.0556 29.56 43.4601 30.7216 42.374C30.8469 42.1058 31.2228 41.3013 31.6326 41.8241C32.1676 42.0788 31.6495 42.4878 31.3989 43.0241C30.5218 44.9012 30.3051 46.7648 30.6235 48.8831C31.3752 47.2741 31.8595 45.5378 32.3438 43.8015C32.4691 43.5334 32.7197 42.9971 32.9872 43.1244C33.5223 43.379 33.2717 43.9153 33.1464 44.1835C32.6621 45.9198 32.1778 47.6561 31.6936 49.3924C31.4599 50.5923 31.3516 51.5241 32.6892 52.1607C32.2287 49.647 32.9635 47.3744 33.4308 44.9745C33.6645 43.7745 34.4502 43.4928 35.3611 42.943C35.754 42.8022 36.1468 42.6613 36.289 43.0568C36.4313 43.4523 36.306 43.7205 35.9131 43.8613C35.395 44.2703 35.0022 44.4111 35.0191 45.0748C33.6578 48.6882 33.0821 52.0199 34.8973 55.8339C35.1479 55.2976 35.2732 55.0294 35.3985 54.7613C35.9911 52.0932 37.5286 50.2025 39.6011 48.5666C39.9939 48.4257 40.1192 48.1576 40.6543 48.4122C40.7965 48.8077 40.6712 49.0758 40.2784 49.2167C40.0278 49.753 39.635 49.8938 39.1168 50.3028C37.4371 51.798 36.56 53.6751 36.218 55.8069C36.1097 56.7387 35.8591 57.275 35.7507 58.2068C35.3748 59.0113 35.517 59.4068 36.1944 60.0569C36.3197 59.7887 36.3197 59.7887 36.445 59.5206C36.8039 58.0524 37.5557 56.4435 38.1822 55.1027C38.4328 54.5664 38.8256 54.4255 39.0932 54.5529C39.6282 54.8075 39.3776 55.3438 39.2523 55.612C39.0017 56.1483 38.7511 56.6846 38.5005 57.2209C37.7487 58.8299 37.1223 60.1707 37.1731 62.1616C37.2984 61.8935 37.2984 61.8935 37.4237 61.6253C37.874 58.5617 40.3394 56.7849 42.0022 54.6261C42.1275 54.358 42.6456 53.949 42.7878 54.3445C43.3229 54.5991 42.8048 55.0081 42.6795 55.2763C42.1783 56.3489 41.4096 57.2942 40.3733 58.1122C38.0502 60.2845 38.2602 63.3346 38.2026 66.2573C38.5785 65.4528 38.6869 64.521 38.9375 63.9847C39.4217 62.2484 40.441 60.7668 41.1928 59.1578C41.4434 58.6215 41.9616 58.2125 42.4966 58.4671C43.2992 58.8491 42.3883 59.399 42.263 59.6671C40.4749 62.0941 39.757 65.0303 39.0391 67.9666C38.9138 68.2347 38.6632 68.771 39.073 69.2938C39.4489 68.4894 39.5572 67.5576 39.6656 66.6258C39.9907 63.8303 41.3859 61.5442 42.9233 59.6536C43.4415 59.2446 43.8174 58.4401 44.2271 58.9629C44.9044 59.6131 43.9935 60.1629 43.7429 60.6992C42.2054 62.5898 41.203 64.7351 40.7357 67.135C40.5021 68.335 41.071 69.9169 39.3744 70.7484L39.5166 71.1439C39.8011 71.9349 40.0856 72.7259 40.6376 73.6442C40.7629 73.376 40.7629 73.376 40.8882 73.1078C40.8204 70.4533 42.2156 68.1671 43.3433 65.7537C43.5939 65.2174 44.1121 64.8084 44.5049 64.6676C44.6302 64.3994 45.023 64.2586 45.1653 64.654C45.4328 64.7814 45.3075 65.0495 45.1822 65.3177C44.5388 65.9948 44.2882 66.5312 43.9123 67.3356C42.9099 69.4809 42.0328 71.358 41.6908 73.4898C41.7077 74.1535 41.4571 74.6898 41.7416 75.4807C43.1301 78.1083 45.5548 79.9178 46.9433 82.5454C47.3531 83.0682 47.37 83.7318 48.1726 84.1138C48.281 83.182 48.3894 82.2502 48.3724 81.5866C48.1963 79.8638 48.6806 78.1275 49.4324 76.5185C49.6829 75.9822 49.8082 75.7141 50.3433 75.9687C50.8784 76.2234 50.3603 76.6323 50.5025 77.0278C49.8929 79.0323 49.6762 80.8959 49.4595 82.7595C49.4764 83.4231 49.9031 84.6096 48.7246 85.0321C48.3318 85.1729 48.5993 85.3003 48.5993 85.3003C49.5611 86.7413 50.5229 88.1824 52.1281 88.9464C51.7928 86.1645 52.5277 83.8919 53.6554 81.4784C53.7807 81.2103 54.0313 80.674 54.5663 80.9286C54.8339 81.0559 54.9761 81.4514 54.7255 81.9877C54.4749 82.5241 54.2243 83.0604 53.9737 83.5967C53.0966 85.4738 53.0221 87.7329 53.3405 89.8512C53.4997 90.9103 54.9626 91.2787 55.5146 92.197C55.7822 92.3244 55.7822 92.3243 55.9244 92.7198C55.9244 92.7198 55.7991 92.988 56.192 92.8472L56.3173 92.579C55.8567 90.0653 56.1987 87.9335 57.3264 85.5201C57.577 84.9837 57.4178 83.9246 58.2204 84.3066C58.7555 84.5612 58.3796 85.3657 58.129 85.902C57.3941 88.1746 56.9268 90.5746 57.3874 93.0883C57.5296 93.4838 57.0115 93.8928 57.4213 94.4156C58.7928 96.3795 60.4319 98.4707 62.5722 99.4893C63.1073 99.7439 63.5001 99.6031 63.7507 99.0668C64.77 97.5852 66.0569 96.2308 67.3438 94.8765C68.1125 93.9312 69.0234 93.3814 70.0597 92.5634C70.4525 92.4226 70.8454 92.2817 70.9876 92.6772C71.3974 93.2 70.737 93.2135 70.6117 93.4817C69.826 93.7633 69.1826 94.4405 68.4139 95.3858C69.3418 95.4996 70.1275 95.218 70.6456 94.809C71.8072 93.7228 73.111 93.0321 74.1472 92.2141C74.5401 92.0733 75.0582 91.6643 75.2004 92.0598C75.3427 92.4553 75.3427 92.4553 75.7355 92.3144C76.1283 92.1736 76.3789 91.6373 76.914 91.8919C77.3068 91.7511 77.5744 91.8784 77.7166 92.2739C77.8588 92.6694 77.466 92.8102 77.0732 92.9511C76.1453 92.8372 75.7694 93.6417 75.2512 94.0507C75.1259 94.3189 74.4656 94.3324 74.8753 94.8552C75.1429 94.9825 75.8202 95.6327 76.0708 95.0963C76.1961 94.8282 76.4467 94.2919 76.8395 94.151C77.4829 93.4739 77.8588 92.6694 78.6445 92.3877C79.1626 91.9787 79.4302 92.106 79.84 92.6288C79.9822 93.0243 80.1244 93.4198 79.7316 93.5607C78.1433 93.4604 77.6591 95.1966 76.6228 96.0146C77.6929 96.5239 78.6378 97.3014 79.3151 97.9515C79.7249 98.4743 80.1177 98.3335 80.3852 98.4608C81.9735 98.5611 81.9735 98.5611 83.3857 96.9386C82.8506 96.684 82.6 97.2203 82.0819 97.6293C81.689 97.7701 81.4384 98.3065 81.2962 97.911C80.8864 97.3882 81.2793 97.2473 81.6721 97.1065C82.1902 96.6975 82.8337 96.0203 82.5492 95.2294C82.5492 95.2294 82.6745 94.9612 82.7998 94.693C83.7107 94.1432 83.8191 93.2114 84.4625 92.5343C85.2313 91.5889 86 90.6436 87.0363 89.8256C87.4291 89.6848 87.9472 89.2758 88.357 89.7986C88.7668 90.3214 88.3739 90.4622 87.8558 90.8712C87.3207 90.6166 86.552 91.5619 85.8002 93.1709C86.5859 92.8892 87.2462 92.8757 87.6221 92.0712C88.1233 90.9986 88.8921 90.0532 89.9283 89.2353C90.4465 88.8263 91.073 87.4855 92.16 88.6584C92.16 88.6584 92.5529 88.5176 92.6782 88.2494C93.071 88.1086 93.3216 87.5722 93.7144 87.4314C94.1073 87.2906 94.3579 86.7543 94.7676 87.2771C95.3027 87.5317 94.7846 87.9407 94.6593 88.2089C94.3917 88.0815 94.2664 88.3497 94.1411 88.6179C94.2834 89.0133 94.534 88.477 94.534 88.477C94.9268 88.3362 95.4449 87.9272 95.8378 87.7863C96.2306 87.6455 96.7487 87.2365 96.891 87.632C97.3008 88.1548 96.5151 88.4365 96.1223 88.5773C95.2113 89.1272 94.175 89.9451 93.5316 90.6223C94.8693 91.2589 94.6017 91.1316 95.638 90.3136C96.6743 89.4956 97.8358 88.4095 98.8721 87.5915C99.2649 87.4506 99.7831 87.0416 99.9253 87.4371C100.335 87.9599 99.5494 88.2416 99.1566 88.3824C97.8528 89.0731 96.8165 89.8911 96.0478 90.8364C96.3153 90.9637 96.5828 91.0911 96.7081 90.8229C98.0119 90.1322 99.0313 88.6506 100.21 88.2281L100.335 87.9599C99.9084 86.7735 100.142 85.5735 99.3225 84.5279C96.5624 79.9364 92.7661 76.163 90.0061 71.5715C88.4923 69.2122 86.4604 67.2618 85.7322 64.6207C85.4478 63.8297 85.1633 63.0388 84.486 62.3886C83.2567 60.8202 82.4202 59.111 81.5837 57.4017C80.7303 55.0288 79.6263 53.1922 78.38 50.9602C76.5818 47.8098 74.6582 44.9276 72.4671 41.9181C70.276 38.9086 67.6921 36.0399 63.9635 34.921C60.8953 33.7886 57.4682 34.1244 54.2916 33.9238C52.8456 34.2189 52.3275 34.6279 52.5205 37.0144C52.4122 37.9462 53.2148 38.3281 53.6245 38.8509ZM106.986 105.22C106.434 104.302 106.275 103.243 105.598 102.593C103.833 100.77 102.194 98.6785 100.43 96.8554C98.9331 95.1597 97.8291 93.3231 95.1707 92.7135C93.3149 92.4859 91.8519 92.1174 90.2806 92.6808C88.7092 93.2441 87.4224 94.5985 85.7088 94.7663C86.5283 95.8119 87.3479 96.8575 87.6323 97.6485C88.628 100.417 90.6599 102.367 92.0484 104.995C92.3329 105.786 93.1355 106.168 93.6706 106.422C94.2056 106.677 94.314 105.745 94.7068 105.604C97.4228 103.291 100.047 102.574 103.383 103.833C104.453 104.343 105.398 105.12 106.986 105.22ZM105.594 92.1018C106.397 92.4838 107.074 93.1339 107.877 93.5159C110.034 95.1981 111.155 97.6984 112.669 100.058C112.811 100.453 112.953 100.849 113.471 100.44C116.597 98.6494 119.723 96.859 123.702 97.4416C123.292 96.9188 122.757 96.6642 122.615 96.2687C120.976 94.1774 120.122 91.8045 117.965 90.1223C115.398 87.9173 111.561 87.7302 108.561 89.2524C107.257 89.943 106.631 91.2838 105.594 92.1018ZM141.214 94.9585C140.929 94.1675 140.519 93.6447 140.11 93.1219C138.88 91.5535 137.793 90.3806 136.439 89.0803C135.352 87.9074 134.014 87.2708 132.676 86.6341C130.536 85.6155 128.287 85.5288 125.947 87.0374C124.518 87.9963 124.301 89.8599 125.656 91.1601C127.546 92.715 129.435 94.2699 130.807 96.2338C131.359 97.1521 132.019 97.1386 132.93 96.5888C135.646 94.2756 138.254 92.8943 141.214 94.9585ZM158.668 95.3981C158.258 94.8753 158.116 94.4798 157.581 94.2252C156.903 93.5751 156.226 92.9249 155.799 91.7385C155.373 90.552 154.804 88.9701 153.073 88.4743C152.806 88.347 152.538 88.2197 152.396 87.8242C150.364 85.8738 146.652 85.4186 144.312 86.9272C144.187 87.1954 143.919 87.068 144.062 87.4635C144.062 87.4635 144.079 88.1272 144.329 87.5909C144.455 87.3227 144.705 86.7864 144.597 87.7182C144.614 88.3818 144.631 89.0455 145.04 89.5683C145.735 90.882 146.947 91.7868 148.034 92.9598C148.711 93.6099 149.246 93.8645 150.157 93.3147C150.676 92.9057 151.603 93.0195 152.139 93.2742C154.279 94.2928 156.277 94.9159 158.668 95.3981ZM86.5081 110.553C84.2426 109.802 82.1361 110.111 79.9044 110.688C78.8512 110.842 77.815 111.66 77.3138 112.733C76.562 114.342 76.9718 114.865 78.4347 115.233C81.7535 115.829 84.2358 114.716 86.8265 112.671C88.3809 111.444 88.1134 111.317 86.5081 110.553ZM114.433 101.881C114.86 103.067 115.663 103.449 116.716 103.295C118.304 103.395 119.625 103.368 120.945 103.341C122.659 103.173 123.821 102.087 124.84 100.605C125.216 99.801 124.948 99.6737 124.413 99.419C121.47 98.0185 118.737 99.668 116.255 100.781C115.469 101.063 115.361 101.995 114.433 101.881ZM106.109 107.097C104.772 106.461 103.969 106.079 103.166 105.697C100.759 104.551 98.3846 104.732 96.1867 106.637C95.7939 106.777 95.2758 107.186 95.6856 107.709C95.8278 108.105 96.2376 108.627 96.8979 108.614C99.8069 108.687 102.699 108.097 106.109 107.097ZM134.143 97.4936C135.623 98.5257 138.389 98.2034 139.944 96.9765C140.462 96.5675 140.32 96.172 139.91 95.6492C138.037 94.7579 135.02 95.6164 134.143 97.4936ZM119.276 84.518C118.24 85.336 117.596 86.0131 116.56 86.8311C117.237 87.4813 118.04 87.8632 118.45 88.386C119.127 89.0362 119.52 88.8953 119.628 87.9635C119.736 87.0317 119.577 85.9726 119.276 84.518ZM155.525 96.5248C154.187 95.8882 152.724 95.5197 151.404 95.5468C151.011 95.6876 150.476 95.433 150.493 96.0966C150.367 96.3648 150.777 96.8876 151.045 97.0149C151.58 97.2695 152.115 97.5242 152.901 97.2425C153.419 96.8335 154.472 96.6792 155.525 96.5248ZM98.1881 91.855C99.9355 93.0144 100.42 91.2781 101.331 90.7283C101.724 90.5875 101.581 90.192 101.439 89.7965C101.297 89.401 100.904 89.5418 100.779 89.81C99.8677 90.3598 99.099 91.3052 98.1881 91.855ZM120.607 90.0683C121.46 92.4412 122.73 90.4232 123.658 90.537C122.838 89.4914 121.409 90.4502 120.607 90.0683ZM132.608 83.9796C133.269 83.966 133.428 85.0252 133.804 84.2207C134.055 83.6844 134.573 83.2754 134.698 83.0072C134.823 82.7391 135.216 82.5982 134.949 82.4709C134.806 82.0754 134.413 82.2163 134.288 82.4844C133.645 83.1616 133.127 83.5706 132.608 83.9796ZM134.088 85.0117C134.356 85.139 134.623 85.2663 134.891 85.3936C135.426 85.6483 135.677 85.112 135.927 84.5756C136.053 84.3075 135.91 83.912 135.643 83.7847C135.108 83.53 134.982 83.7982 134.857 84.0663C134.999 84.4618 134.607 84.6027 134.088 85.0117ZM117.169 84.8267C116.526 85.5038 115.615 86.0537 114.972 86.7308L115.239 86.8581C115.883 86.181 116.793 85.6312 117.169 84.8267ZM72.752 94.5003C74.0727 94.4732 74.4486 93.6688 74.8245 92.8643C74.1811 93.5414 73.663 93.9504 72.752 94.5003ZM75.3427 92.4553C75.3427 92.4553 75.2174 92.7234 75.3427 92.4553C75.2174 92.7234 75.2174 92.7234 75.2174 92.7234C75.2174 92.7234 75.2174 92.7234 75.3427 92.4553C75.4849 92.8508 75.2174 92.7234 75.3427 92.4553ZM115.737 49.3989C115.737 49.3989 115.611 49.6671 115.737 49.3989C115.611 49.6671 115.611 49.6671 115.737 49.3989C115.611 49.6671 115.737 49.3989 115.737 49.3989ZM31.1585 49.1377C31.1585 49.1377 30.7657 49.2785 31.1585 49.1377C30.7657 49.2785 31.0332 49.4059 31.1585 49.1377C31.0332 49.4059 31.0332 49.4059 31.1585 49.1377C31.0332 49.4059 31.0332 49.4059 31.1585 49.1377ZM49.3511 83.6913C49.3511 83.6913 49.2089 83.2958 49.3511 83.6913C49.2089 83.2958 49.0836 83.564 49.3511 83.6913C49.0836 83.564 49.0836 83.564 49.3511 83.6913Z" fill="#040404"/>
<path d="M119.082 84.7075C119.242 85.7629 119.671 86.9451 119.436 88.1406C119.326 89.0689 118.932 89.2091 118.251 88.5612C117.57 87.9132 117.033 87.6593 116.352 87.0113C117.268 86.4638 118.041 85.5222 119.082 84.7075Z" fill="#040404"/>
<path d="M150.651 85.2716C151.297 84.5965 152.085 84.3158 152.731 83.6406C153.016 84.4296 154.09 84.9378 153.05 85.7533C152.924 86.0207 153.192 86.1478 153.192 86.1478C153.855 86.1345 153.998 86.529 153.478 86.9367C152.958 87.3445 152.689 87.2174 152.547 86.8229C152.136 86.3014 151.725 85.7799 150.651 85.2716C150.92 85.3987 150.651 85.2716 150.651 85.2716Z" fill="#040404"/>
<path d="M97.9368 91.8545C98.8536 91.3073 99.6273 90.3662 100.544 89.819C100.67 89.552 101.066 89.4119 101.209 89.8057C101.352 90.1996 101.621 90.3265 101.099 90.7336C100.183 91.2808 99.6949 93.0095 97.9368 91.8545Z" fill="#040404"/>
<path d="M120.351 90.2553C121.547 90.4964 122.709 89.4109 123.404 90.724C122.475 90.6102 121.205 92.627 120.351 90.2553Z" fill="#040404"/>
<path d="M132.429 84.3006C132.951 83.8939 133.6 83.2205 134.122 82.8138C134.248 82.5471 134.644 82.4072 134.788 82.8008C135.057 82.9276 134.931 83.1944 134.535 83.3343C134.283 83.8678 133.76 84.2745 133.634 84.5413C133.255 85.3415 132.699 84.4275 132.429 84.3006Z" fill="#040404"/>
<path d="M132.938 82.5586C132.686 83.0921 132.164 83.4987 132.037 83.7655C131.659 84.5657 131.119 84.312 130.58 84.0584C131.228 83.385 131.607 82.5847 132.938 82.5586C132.669 82.4317 132.938 82.5586 132.938 82.5586Z" fill="#040404"/>
<path d="M133.893 85.3373C134.288 85.1972 134.413 84.93 134.808 84.7899C135.202 84.6498 135.185 83.9884 135.597 84.5097C135.866 84.6368 136.009 85.031 135.883 85.2982C135.757 85.5653 135.505 86.0997 134.842 86.1127C134.699 85.7185 134.43 85.5914 133.893 85.3373Z" fill="#040404"/>
<path d="M116.995 84.9978C116.489 86.0637 115.695 86.3434 115.044 87.0163L114.774 86.8896C115.551 85.9503 116.074 85.544 116.995 84.9978Z" fill="#040404"/>
<path d="M72.4893 94.2679C73.4093 93.7216 73.9325 93.3152 74.5822 92.6422C74.2027 93.4419 73.8233 94.2416 72.4893 94.2679Z" fill="#040404"/>
<path d="M93.4145 88.9828C93.0346 89.7822 92.5107 90.1885 91.7161 90.4682C92.3667 89.7954 92.7466 88.996 93.4145 88.9828Z" fill="#040404"/>
<path d="M69.453 61.9537C69.3275 62.2208 69.8649 62.4754 69.4707 62.6151C69.4707 62.6151 69.202 62.4878 69.0588 62.0934C69.3275 62.2208 69.3275 62.2208 69.453 61.9537Z" fill="#040404"/>
<path d="M93.4166 88.9903C93.2725 88.5968 93.5427 88.7239 93.6689 88.4574C93.813 88.8509 93.813 88.8509 93.4166 88.9903Z" fill="#040404"/>
<path d="M94.4609 88.1827C94.4609 88.1827 94.2083 88.7159 94.0651 88.3226C94.1914 88.0561 94.1914 88.056 94.4609 88.1827C94.5872 87.9161 94.4609 88.1827 94.4609 88.1827Z" fill="#040404"/>
<path d="M75.1026 92.248C74.9762 92.514 75.2489 92.6417 75.1026 92.248C74.9762 92.514 74.9762 92.514 74.9762 92.514C74.9762 92.514 74.9762 92.514 75.1026 92.248C74.9762 92.514 75.1026 92.248 75.1026 92.248Z" fill="#040404"/>
<path d="M54.3907 38.9039C54.3907 38.9039 54.2646 39.1717 54.3907 38.9039C53.9969 39.0451 53.9969 39.0451 54.3907 38.9039C54.123 38.7773 54.123 38.7773 54.3907 38.9039Z" fill="#040404"/>
<path d="M61.6353 48.3214L61.5089 48.5874C61.5089 48.5874 61.2362 48.4598 61.6353 48.3214C61.3626 48.1938 61.6353 48.3214 61.6353 48.3214Z" fill="#040404"/>
<path d="M72.0292 67.4659L71.9023 67.7335C71.508 67.8756 71.6349 67.608 72.0292 67.4659C71.6349 67.608 72.0292 67.4659 72.0292 67.4659Z" fill="#040404"/>
<path d="M132.672 82.4413C132.798 82.1735 132.798 82.1735 132.672 82.4413C133.066 82.3001 132.94 82.5679 132.672 82.4413C132.94 82.5679 132.672 82.4413 132.672 82.4413Z" fill="#040404"/>
<path d="M114.419 47.0178L114.292 47.286C114.025 47.1602 114.025 47.1602 114.419 47.0178C114.025 47.1602 114.025 47.1602 114.419 47.0178Z" fill="#040404"/>
<path d="M67.7079 59.4685C67.8495 59.863 67.8495 59.863 67.7079 59.4685C67.8495 59.863 67.5818 59.7364 67.7079 59.4685C67.5818 59.7364 67.5818 59.7364 67.7079 59.4685Z" fill="#040404"/>
<path d="M150.798 85.6514C150.53 85.5248 150.53 85.5248 150.798 85.6514C150.656 85.2569 150.656 85.2569 150.798 85.6514C150.656 85.2569 150.924 85.3836 150.798 85.6514Z" fill="#040404"/>
<path d="M31.5436 48.8193C31.4176 49.0854 31.4176 49.0854 31.5436 48.8193C31.4176 49.0854 31.4176 49.0854 31.5436 48.8193C31.4176 49.0854 31.1459 48.9577 31.5436 48.8193C31.1459 48.9577 31.5436 48.8193 31.5436 48.8193Z" fill="#040404"/>
<path d="M49.258 83.3219C48.9891 83.194 48.9891 83.194 49.258 83.3219C48.9891 83.194 49.1137 82.9274 49.258 83.3219C49.1137 82.9274 49.258 83.3219 49.258 83.3219Z" fill="#040404"/>
<path d="M127.456 66.1319L127.329 66.3995C126.935 66.5416 127.062 66.274 127.456 66.1319C127.062 66.274 127.062 66.274 127.456 66.1319Z" fill="#040404"/>
<path d="M56.8756 91.2802C56.8756 91.2802 56.7496 91.548 56.8756 91.2802C56.4819 91.4214 56.4819 91.4214 56.8756 91.2802C56.608 91.1536 56.608 91.1536 56.8756 91.2802Z" fill="#040404"/>
<path d="M128.335 83.9437C128.335 83.9437 128.211 84.2102 128.335 83.9437C128.066 83.8158 128.066 83.8158 128.335 83.9437Z" fill="#040404"/>
<path d="M59.6547 90.9925C60.0172 89.5325 61.0463 88.0593 61.4089 86.5993C61.5354 86.3327 61.5184 85.6727 62.0585 85.926C62.5986 86.1793 62.4721 86.4459 62.3456 86.7126C61.966 87.5126 61.983 88.1725 61.6035 88.9725C60.8444 90.5724 60.7519 92.159 60.9295 93.8722C61.0731 94.2655 61.3602 95.0521 60.6935 95.0654C59.9004 95.3455 60.2799 94.5455 60.1364 94.1522C59.9758 93.099 59.9418 91.7791 58.8615 91.2725C58.5915 91.1459 58.4479 90.7526 58.3044 90.3593C57.7302 88.7861 59.3749 85.3196 60.8177 84.3662C61.2142 84.2262 61.3408 83.9595 61.8809 84.2128C62.0244 84.6061 61.8979 84.8728 61.7714 85.1394C60.2191 87.0194 59.7301 88.746 59.6547 90.9925Z" fill="#040404"/>
<path d="M52.1567 75.9033C52.6651 74.8381 53.1734 73.773 54.0978 73.2266C54.4964 73.0866 55.0222 72.6803 55.1666 73.0729C55.5827 73.5917 55.184 73.7317 54.9298 74.2643C52.9887 76.9409 52.2609 79.8563 52.0762 83.0243C52.2207 83.4168 52.2381 84.0756 51.5679 84.0894C50.8977 84.1032 50.6087 83.3181 50.8629 82.7855C51.065 80.2764 51.14 78.0336 52.1567 75.9033Z" fill="#040404"/>
<path d="M47.5086 72.6632C48.5256 70.5331 49.9763 69.5805 50.8837 68.3755C51.0108 68.1092 51.2825 68.2354 51.5541 68.3617C51.8258 68.4879 51.9703 68.8804 51.8432 69.1467C51.4618 69.9454 50.9359 70.3517 50.5545 71.1505C48.8669 73.2944 47.9944 75.817 48.064 78.452C47.9368 78.7183 48.0814 79.1108 47.8097 78.9846C47.4109 79.1246 47.1392 78.9983 46.9947 78.6058C46.5785 78.0871 46.6882 77.1621 46.9425 76.6296C46.7632 74.9196 47.3988 73.5882 47.5086 72.6632Z" fill="#040404"/>
<path d="M49.1311 63.2432C49.5491 63.7611 49.4216 64.0272 48.8937 64.4334C47.4554 66.0439 46.5626 67.9063 45.5423 70.0349C45.0321 71.0991 44.7947 72.2893 44.5574 73.4795C44.4298 73.7456 44.5751 74.1376 43.902 74.1518C43.6292 74.0258 43.484 73.6338 43.6115 73.3677C44.0508 69.6711 45.4361 66.0863 48.3304 63.5234C48.458 63.2573 48.8583 63.1172 49.1311 63.2432Z" fill="#040404"/>
<path d="M46.6865 70.2891C47.0684 69.4905 47.0509 68.8321 47.9771 68.2858C48.3765 68.1457 48.5038 67.8796 48.6487 68.2719C48.9208 68.398 48.7935 68.6642 48.6662 68.9303C47.121 71.4659 46.2474 73.9876 45.9181 76.7616C45.7908 77.0277 45.9356 77.42 45.264 77.434C44.9919 77.3078 44.7197 77.1817 44.8471 76.9156C44.6847 75.8648 44.7945 74.9401 45.1764 74.1416C45.8129 72.8107 46.05 71.6199 46.6865 70.2891Z" fill="#040404"/>
<path d="M67.4591 92.4588C66.8077 93.1317 66.5712 94.3238 65.6489 94.8703C65.1243 95.2767 64.7266 95.4167 64.7438 96.076C64.617 96.3424 64.4901 96.6089 64.0924 96.7489C63.8215 96.6224 63.6774 96.2296 63.8043 95.9631C64.0408 94.771 64.4213 93.9717 64.6578 92.7795C64.9114 92.2466 65.0383 91.9802 65.292 91.4473C65.4188 91.1809 65.4188 91.1809 65.5457 90.9145C65.9434 90.7745 66.0874 91.1673 65.9606 91.4338C65.9778 92.0931 66.3755 91.9531 66.6292 91.4202C66.7561 91.1538 66.7388 90.4945 67.2806 90.7473C67.9665 91.3931 67.9837 92.0524 67.4591 92.4588Z" fill="#040404"/>
<path d="M56.4579 81.2587C56.8569 81.1186 56.9667 80.1938 57.4929 79.7875C57.8919 79.6475 58.0191 79.3812 58.1638 79.7736C58.4356 79.8998 58.3084 80.1661 58.1812 80.4323C56.8918 82.4359 55.8742 84.5657 56.0712 86.9341C55.944 87.2003 55.8168 87.4666 55.8168 87.4666C55.4178 87.6066 55.2731 87.2142 55.4003 86.948C54.9664 85.7707 55.3305 84.3134 55.5675 83.1223C55.8219 82.5898 56.0763 82.0573 56.4579 81.2587Z" fill="#040404"/>
<path d="M65.2938 88.7925C64.5311 90.3902 63.2252 91.7354 63.2774 93.7118C63.1503 93.978 63.1503 93.978 62.7516 94.1181C62.48 93.9918 62.2083 93.8656 62.3355 93.5993C62.0291 92.1554 62.393 90.6978 63.1731 89.7589C63.4273 89.2264 64.0802 88.5538 64.6061 88.1475C64.7332 87.8812 65.259 87.4749 65.8022 87.7274C66.3455 87.9799 65.8196 88.3862 65.6925 88.6525C65.4209 88.5263 65.2938 88.7925 65.2938 88.7925Z" fill="#040404"/>
<path d="M79.3795 95.6394C79.1093 95.5128 78.9656 95.1196 79.0922 94.853C79.8688 93.9132 80.9157 93.1 81.6923 92.1602C81.8189 91.8936 82.0892 92.0202 82.3594 92.1468C82.6297 92.2733 82.5031 92.5399 82.3765 92.8065C81.5999 93.7464 80.8232 94.6862 79.903 95.2328C79.6498 95.766 79.3795 95.6394 79.3795 95.6394Z" fill="#040404"/>
<path d="M99.8154 63.5574C99.8508 64.8736 99.3407 65.9378 98.9581 66.736C98.3381 68.7244 97.4453 70.5868 96.5525 72.4492C96.425 72.7153 96.1699 73.2474 95.6243 72.9955C95.0787 72.7435 95.6066 72.3374 95.4613 71.9454C96.2089 69.6909 97.2292 67.5625 97.9767 65.308C98.3594 64.5099 98.8872 64.1037 99.8154 63.5574Z" fill="#040404"/>
<path d="M97.8774 75.7445C98.515 74.4142 98.8798 72.9578 99.6449 71.3614C100.027 70.5632 100.283 70.031 101.211 69.4848C101.338 69.2187 101.738 69.0786 102.011 69.2046C102.284 69.3306 102.156 69.5966 102.029 69.8627C100.591 71.4733 100.098 73.1957 99.4783 75.1841C99.2233 75.7163 98.9683 76.2484 98.568 76.3885C98.1678 76.5286 98.1678 76.5286 97.895 76.4026C97.2221 76.4168 97.3496 76.1507 97.8774 75.7445Z" fill="#040404"/>
<path d="M92.9321 60.2131C92.5675 61.6698 91.803 63.2665 91.4384 64.7232C91.311 64.9893 91.3286 65.6476 90.6563 65.6617C90.1115 65.4096 90.6387 65.0034 90.4937 64.6112C90.8231 61.8379 91.8424 59.7089 92.9891 57.3138C93.1165 57.0477 93.3713 56.5155 93.7887 57.0337C94.3336 57.2858 94.2062 57.5519 93.9514 58.0841C93.6965 58.6164 93.3143 59.4148 92.9321 60.2131Z" fill="#040404"/>
<path d="M104.132 79.0847C103.621 80.1488 103.111 81.2129 102.6 82.277C102.473 82.543 102.217 83.0751 101.671 82.8233C101.125 82.5715 101.654 82.1653 101.781 81.8993C102.402 79.9112 103.15 77.6571 104.589 76.0467C104.716 75.7807 105.099 74.9826 105.518 75.5005C106.064 75.7523 105.535 76.1584 105.28 76.6905C104.897 77.4886 104.515 78.2866 104.132 79.0847Z" fill="#040404"/>
<path d="M101.787 79.2495C101.66 79.5158 101.405 80.0483 100.862 79.7958C100.591 79.6695 100.845 79.1369 100.701 78.7444C101.319 76.754 102.064 74.4974 102.41 72.3808C102.664 71.8482 102.791 71.5819 103.334 71.8345C103.878 72.087 103.352 72.4933 103.496 72.8859C103.15 75.0025 102.405 77.2591 101.787 79.2495Z" fill="#040404"/>
<path d="M95.5739 68.3688C95.3193 68.9012 95.192 69.1674 94.92 69.0412C94.6479 68.9151 94.3758 68.7889 94.5031 68.5228C94.8499 66.4072 95.4688 64.4177 96.4871 62.2882C96.6143 62.022 97.141 61.6158 97.413 61.7419C97.9572 61.9942 97.4305 62.4004 97.3033 62.6666C96.6844 64.6561 96.0655 66.6455 95.5739 68.3688Z" fill="#040404"/>
<path d="M84.3248 47.5156C83.8151 48.5801 83.1781 49.9107 83.2133 51.2273C83.0859 51.4934 83.2309 51.8856 82.8311 52.0256C82.4312 52.1657 82.4136 51.5074 82.541 51.2413C82.6156 49.0003 83.5075 47.1375 84.6718 45.4007C84.7992 45.1345 85.199 44.9945 85.4715 45.1205C85.7439 45.2466 85.6165 45.5127 85.4891 45.7788C84.8344 46.4511 84.5796 46.9834 84.3248 47.5156Z" fill="#040404"/>
<path d="M93.837 66.5413C93.7099 66.8076 93.5829 67.0739 93.1843 67.2139C92.9129 67.0876 92.7684 66.695 92.7684 66.695C93.1149 64.5783 93.4614 62.4616 94.3508 60.5975C94.4779 60.3312 94.6049 60.0649 94.8764 60.1912C95.4193 60.4437 95.1652 60.9764 95.0382 61.2427C94.5299 62.3079 94.2931 63.4994 94.0564 64.6909C94.0737 65.3498 94.0911 66.0087 93.837 66.5413Z" fill="#040404"/>
<path d="M88.3969 55.3825C88.0145 56.1809 87.6322 56.9792 86.8499 57.9176C86.7224 58.1837 86.595 58.4498 86.3224 58.3238C86.0499 58.1977 86.1773 57.9316 86.3048 57.6655C86.7969 55.9429 87.8342 54.4723 88.1989 53.0157C88.3263 52.7496 88.5989 52.8756 88.7263 52.6095C88.9989 52.7356 89.144 53.1277 89.0165 53.3938C89.0342 54.052 88.3793 54.7243 88.3969 55.3825Z" fill="#040404"/>
<path d="M85.9113 49.6126C86.0386 49.3465 86.4381 49.2064 86.5655 48.9402L86.965 48.8002C87.2372 48.9263 87.1099 49.1924 87.1099 49.1924C86.4908 51.1817 85.7268 52.7786 85.1077 54.7679C84.9803 55.034 84.9803 55.034 84.5808 55.1741C84.3086 55.048 84.0363 54.9219 84.1637 54.6557C84.2735 53.7311 84.6555 52.9326 84.6379 52.2742C85.1473 51.2096 85.8015 50.5372 85.9113 49.6126Z" fill="#040404"/>
<path d="M77.9769 45.7571C78.341 44.2997 78.8498 43.2348 79.4857 41.9036C79.6129 41.6374 79.8673 41.1049 80.2663 40.9649C80.6653 40.8249 80.6653 40.8248 80.9371 40.951C81.2089 41.0773 81.0817 41.3435 80.9545 41.6097C80.3186 42.9409 79.5555 44.5383 79.1913 45.9957C78.538 46.6682 78.2487 45.8833 77.9769 45.7571Z" fill="#040404"/>
<path d="M106.538 82.2213C105.756 83.1598 105.247 84.2243 104.737 85.2889C104.61 85.555 104.355 86.0873 104.083 85.9612C103.538 85.7091 103.666 85.4429 103.92 84.9107C104.43 83.8461 105.067 82.5154 105.576 81.4508C105.831 80.9186 106.086 80.3863 106.63 80.6384C107.32 81.2828 106.793 81.689 106.538 82.2213Z" fill="#040404"/>
<path d="M80.844 44.5299C81.2256 43.7312 81.48 43.1988 82.1335 42.5263C82.5325 42.3862 82.6597 42.12 82.8043 42.5124C83.0762 42.6386 82.949 42.9048 82.8218 43.1711C81.914 44.376 81.0061 45.581 81.1857 47.2907C81.0585 47.557 80.9313 47.8232 80.6594 47.697C80.2604 47.837 80.1158 47.4446 80.243 47.1784C79.9537 46.3935 80.4625 45.3286 80.844 44.5299Z" fill="#040404"/>
<path d="M90.4067 58.0011C90.0244 58.7993 89.7696 59.3315 89.5147 59.8636C89.3873 60.1297 89.2598 60.3958 88.9871 60.2697C88.7143 60.1435 88.8418 59.8774 88.9692 59.6114C89.2062 58.4209 89.8433 57.0906 90.4805 55.7602C90.6079 55.4941 90.7354 55.228 91.0081 55.3542C91.2809 55.4803 91.1534 55.7464 91.2988 56.1386C91.3167 56.7969 90.6616 57.4689 90.4067 58.0011Z" fill="#040404"/>
<path d="M103.409 52.8394C104.174 51.2426 104.666 49.5198 105.558 47.6569C105.685 47.3908 105.94 46.8585 106.485 47.1106C107.029 47.3627 106.775 47.895 106.647 48.1611C106.01 49.4918 105.646 50.9484 104.609 52.4192C104.354 52.9514 103.954 53.0915 103.409 52.8394Z" fill="#040404"/>
<path d="M107.114 52.6475C106.86 53.1799 106.478 53.9786 106.224 54.5111C106.097 54.7773 105.97 55.0435 105.426 54.7911C105.154 54.665 105.281 54.3987 105.136 54.0063C105.772 52.6752 106.137 51.2179 106.773 49.8867C106.9 49.6205 107.154 49.0881 107.698 49.3404C107.97 49.4666 107.987 50.1253 107.86 50.3915C107.75 51.3164 107.496 51.8488 107.114 52.6475Z" fill="#040404"/>
<path d="M122.624 79.5226C122.497 79.7887 122.369 80.0549 122.242 80.321C122.115 80.5871 121.86 81.1194 121.443 80.6008C120.898 80.3484 121.425 79.9424 121.552 79.6763C122.061 78.6118 122.298 77.421 122.68 76.6227C122.935 76.0904 123.189 75.5582 123.462 75.6844C124.007 75.9368 123.752 76.469 123.497 77.0013C123.115 77.7997 122.734 78.598 122.624 79.5226Z" fill="#040404"/>
<path d="M103.187 45.1668C102.807 45.9662 102.427 46.7655 101.775 47.4384C101.648 47.7049 101.522 47.9713 100.98 47.7184C100.709 47.592 100.836 47.3255 100.692 46.9326C101.199 45.8668 101.309 44.941 101.816 43.8752C102.07 43.3423 102.467 43.2023 102.738 43.3288C103.28 43.5817 103.026 44.1146 102.773 44.6475C103.314 44.9004 103.187 45.1668 103.187 45.1668Z" fill="#040404"/>
<path d="M120.826 85.2319C121.463 83.9016 122.101 82.5714 122.739 81.2412C122.866 80.9752 122.994 80.7091 123.266 80.8352C123.539 80.9613 123.685 81.3534 123.557 81.6194C122.92 82.9497 122.41 84.0138 121.499 85.218C121.645 85.6101 121.226 85.0919 120.826 85.2319Z" fill="#040404"/>
<path d="M114.591 70.3887C114.955 68.9311 115.446 67.2072 115.81 65.7495C115.937 65.4832 116.064 65.217 116.463 65.0769C116.734 65.2032 116.879 65.5957 116.751 65.862C116.388 67.3197 116.024 68.7773 115.388 70.1087C115.405 70.7675 114.862 70.515 114.591 70.3887Z" fill="#040404"/>
<path d="M114.017 66.1632C113.89 66.4294 113.762 66.6957 113.364 66.8357C113.237 67.102 112.965 66.9758 112.965 66.9758C112.693 66.8495 112.693 66.8495 112.821 66.5832C113.185 65.1256 113.693 64.0605 114.057 62.6028C114.184 62.3366 114.71 61.9303 114.981 62.0565C115.525 62.309 114.999 62.7153 114.872 62.9816C114.635 64.173 114.525 65.0981 114.017 66.1632Z" fill="#040404"/>
<path d="M119.01 69.2726C119.551 69.5256 119.695 69.9185 119.839 70.3114C119.476 71.7702 118.969 72.836 118.876 74.4213C118.75 74.6877 118.894 75.0806 118.225 75.0942C117.954 74.9677 117.81 74.5748 117.937 74.3083C117.759 72.5966 118.52 70.9979 119.01 69.2726Z" fill="#040404"/>
<path d="M117.27 66.7859C117.811 67.0388 118.226 67.5581 117.973 68.091C117.736 69.2833 117.356 70.0826 117.119 71.2749C116.993 71.5414 116.866 71.8078 116.595 71.6813C116.053 71.4284 116.451 71.2884 116.307 70.8955C116.543 69.7033 116.907 68.2446 117.27 66.7859Z" fill="#040404"/>
<path d="M140.009 86.31C139.882 86.5761 139.899 87.2345 139.355 86.9824C138.81 86.7302 139.065 86.1979 139.192 85.9318C139.412 84.0827 140.176 82.4859 141.068 80.6228C141.195 80.3567 141.45 79.8244 141.994 80.0766C142.539 80.3287 142.012 80.7349 141.884 81.0011C141.393 82.724 140.901 84.447 140.009 86.31Z" fill="#040404"/>
<path d="M137.15 79.3455C136.624 79.7517 136.659 81.0691 135.844 80.6905C135.029 80.3119 135.809 79.3731 136.063 78.8406C136.572 77.7756 136.809 76.5844 137.046 75.3932C137.173 75.1269 137.3 74.8607 137.427 74.5944C137.554 74.3282 137.953 74.1882 138.225 74.3144C138.497 74.4406 138.37 74.7068 138.243 74.9731C138.006 76.1643 137.913 77.748 137.15 79.3455Z" fill="#040404"/>
<path d="M123.72 61.6979C123.812 60.1142 124.847 58.643 125.211 57.1856C125.338 56.9193 125.61 57.0455 125.61 57.0455C125.882 57.1717 126.154 57.2979 126.026 57.5642C125.662 59.0216 125.298 60.479 124.391 61.684C124.263 61.9503 123.992 61.8241 123.72 61.6979Z" fill="#040404"/>
</g>
</svg>
