<svg width="43" height="76" viewBox="0 0 43 76" fill="none" xmlns="http://www.w3.org/2000/svg">
<g opacity="0.1">
<path d="M14.5299 22.9712C11.6576 23.1627 9.35978 22.7797 7.25343 22.3968C5.33857 22.0138 3.6152 21.0564 2.27479 19.9075C0.168446 18.1841 -0.0230396 15.6948 0.742905 13.2054C1.12588 11.6735 1.89182 10.1417 3.23222 8.99274C4.18965 8.03531 4.76411 6.88639 5.33857 5.73748C7.25343 2.48221 10.1257 0.567352 13.9554 0.567352C17.9767 0.567352 21.8064 0.950325 25.6361 2.6737C30.4233 4.78005 33.6785 8.41828 36.3593 12.631C37.6997 14.7373 39.2316 16.8437 39.9976 19.333C40.955 22.5883 42.2954 25.652 41.338 29.0988C40.955 30.0562 41.7209 31.0136 41.9124 31.9711C43.0613 36.3753 41.7209 40.0135 39.4231 43.6517C39.0401 44.2262 39.0401 44.6092 39.4231 44.9921C39.9976 45.5666 40.189 46.141 39.9976 46.907C38.6572 51.8856 36.7423 56.6728 32.7211 60.311C31.9551 61.077 31.1892 61.6514 30.2318 62.0344C28.8914 62.6089 28.6999 63.5663 28.3169 64.7152C27.7424 67.9705 26.5935 70.8428 25.0616 73.7151C24.6787 74.481 24.1042 75.0555 23.3383 75.2469C20.6575 76.2044 16.8277 73.1406 17.0192 70.2683C17.0192 69.3109 17.0192 68.9279 15.8703 68.9279C15.1044 68.9279 14.1469 68.5449 13.381 68.162C10.7002 66.8216 9.55127 64.7152 10.1257 62.0344C10.8917 59.1621 13.5725 57.2472 16.4448 57.6302C18.3596 57.8217 20.2745 57.8217 21.9979 57.8217C23.1468 57.8217 23.7212 57.4387 23.7212 56.0983C23.7212 52.4601 23.5298 48.8219 23.9127 45.3751C24.1042 44.0347 24.1042 42.8858 24.8702 41.7369C25.8276 40.205 25.8276 38.6731 25.6361 36.9497C25.2531 34.4604 24.2957 31.9711 24.6787 29.2903C24.6787 28.7158 23.3383 27.7584 22.5723 27.1839C21.2319 26.2265 19.5085 25.8435 18.3596 24.6946C17.2107 23.1627 15.8703 22.7797 14.5299 22.9712ZM32.9126 10.7161C30.4233 8.03531 28.1254 5.54599 24.8702 4.20559C22.3808 3.24816 19.8915 3.05667 17.4022 2.6737C12.4236 1.52478 8.78532 3.05667 6.48749 7.65234C5.72154 8.80126 4.9556 9.95017 3.99817 10.9076C2.65777 12.248 2.08331 14.1629 2.27479 16.2692C2.65777 19.1415 4.9556 19.9075 7.25343 20.6734C9.55127 21.4393 12.0406 21.4393 14.5299 21.4393C15.4873 21.4393 15.6788 21.0564 15.6788 20.0989C15.2958 18.1841 15.8703 16.4607 17.2107 15.1203C19.5085 12.631 22.5723 11.865 25.4446 10.7161C27.7424 9.5672 30.2318 9.95017 32.9126 10.7161ZM28.1254 11.6735C25.0616 11.865 21.9979 13.5884 19.1256 15.5033C17.5937 16.6522 16.8277 18.3756 17.4022 20.4819C17.9767 22.0138 18.9341 22.9712 20.2745 23.7372C22.1893 24.6946 24.1042 25.4605 25.2531 27.3754C25.6361 27.9499 25.8276 27.7584 26.402 27.5669C30.4233 25.0776 34.6359 26.2265 38.6572 27.5669C39.8061 27.9499 39.8061 27.5669 39.8061 26.801C39.8061 26.2265 39.8061 25.652 39.6146 25.0776C39.2316 22.5883 38.2742 20.2904 37.3168 17.9926C35.5934 14.3544 33.1041 11.865 28.1254 11.6735ZM27.3595 39.822C30.8062 40.7794 34.4445 41.1624 37.5082 42.6943C38.4657 40.588 40.189 38.6731 40.3805 35.9923C40.572 32.5455 40.189 28.5243 35.5934 27.9499C33.2955 27.7584 31.1892 26.9924 28.8914 27.9499C27.3595 28.5243 26.5935 29.8647 26.785 31.2051C27.168 33.3115 27.3595 35.4178 27.7424 37.5242C27.551 38.4816 27.7424 39.2475 27.3595 39.822ZM29.0828 60.311C30.0403 59.5451 30.8062 58.9706 31.5722 58.3962C34.4445 55.7154 35.9763 52.2686 37.3168 48.6304C38.4657 45.9496 37.6997 44.4177 34.8274 43.4602C32.9126 42.8858 30.9977 42.3113 28.8914 41.9284C27.168 41.5454 26.2106 42.1198 25.8276 44.0347C25.2531 48.0559 25.4446 51.8856 25.6361 55.9068C25.6361 56.4813 25.4446 58.2047 27.168 57.4387C28.1254 57.0558 28.6999 57.6302 28.8914 58.5876C29.2743 59.1621 29.0828 59.5451 29.0828 60.311ZM24.6787 70.0768C22.9553 69.6938 22.9553 69.6938 23.7212 65.8641C23.1468 66.2471 22.5723 66.8215 21.9979 67.2045C21.4234 67.5875 20.8489 67.779 20.466 67.396C20.083 67.013 20.2745 66.4386 20.466 65.8641C21.0404 64.7152 21.4234 63.7578 21.9979 62.4174C20.6575 62.6089 19.3171 62.6089 18.1681 62.8003C17.5937 62.8003 17.0192 62.8003 17.0192 62.0344C16.8277 61.2684 17.4022 61.077 18.1681 60.8855C18.7426 60.694 19.5085 60.8855 20.083 60.694C21.4234 60.5025 22.5723 60.311 23.9127 58.9706C20.8489 59.5451 18.3596 59.1621 15.8703 59.1621C13.5725 59.1621 11.8491 61.2685 12.0406 63.3748C12.2321 65.2897 14.1469 66.8215 17.0192 66.8215C18.9341 66.8215 19.3171 67.2045 19.1256 69.1194C18.9341 71.4172 19.5085 72.3747 21.8064 72.9491C22.7638 73.1406 23.7212 73.3321 24.1042 71.9917C23.9127 71.4172 24.2957 70.8428 24.6787 70.0768Z" fill="#0A0A0A"/>
</g>
</svg>
