<svg width="124" height="188" viewBox="0 0 124 188" fill="none" xmlns="http://www.w3.org/2000/svg">
<g opacity="0.1">
<path d="M33.2922 27.396C39.6084 25.2818 44.7122 27.057 48.0196 33.3411C50.9562 30.8455 54.0061 28.1057 57.9078 29.9166C62.2971 31.9539 66.896 32.9012 71.6082 33.6042C75.3622 34.4562 75.3347 37.7083 75.7777 40.5853C78.9306 41.4551 82.6674 41.7054 85.5937 43.0636C89.4953 44.8745 88.1695 49.0081 88.0286 52.5045C88.6297 52.4867 89.1174 52.713 89.9623 52.8084C97.7141 54.6254 99.8708 62.75 94.7463 68.6823C94.1624 69.3017 93.4652 70.1653 92.6375 70.6716C89.5875 73.4114 89.6218 74.6146 93.2968 76.9139C98.5654 80.2497 101.402 86.909 100.128 92.8474C99.9012 93.3359 100.162 94.0506 100.406 94.1638C103.497 97.0826 102.511 100.484 101.883 103.754C101.254 107.024 98.9186 109.501 95.8343 111.038C95.3638 111.413 95.0066 111.544 94.2922 111.806C95.082 118.406 93.0865 120.151 86.4646 124.201C81.9687 126.863 75.2094 126.101 71.6307 122.956C70.1057 124.325 68.2235 125.826 66.829 127.554C64.624 130.389 60.5471 130.871 57.1161 128.685C56.6283 128.459 56.2368 127.386 55.6358 127.404C49.8863 128.297 51.796 123.544 50.8653 120.441C45.8473 121.674 41.5713 119.392 37.0686 117.599C33.5413 116.259 31.2676 116.688 29.437 119.993C26.5862 125.497 24.5803 131.096 21.7295 136.599C18.992 141.859 18.5454 147.291 18.2293 153.08C17.9133 158.87 15.691 161.103 9.66337 160.68C1.34484 160.084 -5.48304 156.915 -11.5347 151.435L-11.7785 151.322C-13.0149 150.154 -15.6011 148.064 -15.3745 147.575C-14.241 145.133 -12.2626 142.786 -10.2671 141.041C-8.6288 139.427 -5.75405 138.981 -4.60343 137.14C-2.64223 134.192 -1.4126 130.904 -0.670671 127.39C0.586503 120.85 1.24263 114.328 2.27311 108.276C0.208938 107.615 -1.25418 106.936 -2.83064 106.501C-3.9194 106.292 -5.00816 106.084 -6.07975 106.477C-12.0388 108.46 -15.9233 107.251 -19.3268 101.812C-19.5707 101.699 -19.9279 101.83 -20.1717 101.717C-26.0174 103.456 -29.1875 101.985 -31.7462 96.6417C-32.0072 95.9269 -32.3987 94.8547 -32.0587 94.1221C-30.0013 90.328 -31.9074 86.772 -32.8553 83.0671C-33.5078 81.2801 -32.1305 78.9513 -31.8248 77.0155C-31.6153 75.9255 -31.4057 74.8355 -31.6668 74.1207C-33.0852 70.791 -31.907 65.6984 -28.9704 63.2028C-26.6177 61.3267 -24.5088 59.3373 -22.7743 56.8774C-19.4187 52.2018 -14.9846 51.5885 -10.0285 52.4048C-12.2987 44.5244 -10.4851 40.6171 -3.22782 37.7525C-3.32041 30.2891 3.04051 25.5243 10.3046 27.115C11.1495 27.2104 12.4478 26.3289 13.0317 25.7094C17.9123 19.664 24.1324 18.3955 30.0363 22.9167C31.3861 23.84 32.0386 25.6269 33.2922 27.396ZM74.0385 114.575C73.4202 113.991 73.1764 113.878 72.9325 113.765C72.1838 112.824 71.4351 111.883 70.6864 110.942C71.8885 110.906 73.3344 110.983 74.406 110.59C75.8348 110.066 77.7513 109.768 78.2047 108.792C79.242 107.195 79.3038 105.146 79.9667 103.08C80.0801 102.835 79.2352 102.74 79.1047 102.383C78.2426 101.686 77.3805 100.989 76.2746 100.179C77.2157 99.4282 78.1568 98.6777 79.2284 98.2847C82.1993 96.9923 82.4879 94.4549 82.7764 91.9175C83.065 89.3801 81.7152 88.4568 79.4072 87.6823C76.742 87.0389 76.5771 85.4784 78.8165 83.8464C79.2871 83.4712 79.8881 83.4534 80.1148 82.965C80.7949 81.4997 82.1893 79.7724 82.0245 78.2119C81.8768 77.2529 79.6822 76.2343 78.3324 75.311C78.0885 75.1978 77.3741 75.4598 77.2436 75.1024C76.5121 74.7629 75.5367 74.3102 75.5195 73.7086C75.5023 73.107 76.1996 72.2433 76.6701 71.8681C77.1407 71.4929 77.9684 70.9866 78.6828 70.7246C82.4815 68.9259 82.5605 67.4785 79.94 64.1846C78.4425 62.3023 76.8832 62.469 75.0972 63.1241C71.2986 64.9228 71.2986 64.9228 69.863 60.9915C69.2104 59.2046 68.0702 57.1913 66.7204 56.268C63.777 54.3082 59.8478 55.7495 57.3989 58.4714C55.5339 60.5739 53.4079 61.9616 51.1685 63.5936C50.698 63.9688 49.8531 63.8735 49.3654 63.6471C48.991 63.1765 48.8433 62.2176 48.8262 61.616C49.5853 58.7033 50.5882 55.9039 51.2168 52.6339C52.1854 48.6313 49.8088 45.4505 45.9414 44.8427C41.5864 44.0086 41.0816 43.1807 42.5207 38.8028C42.8436 37.4686 43.1493 35.5328 42.5139 34.3475C40.965 30.6604 37.211 29.8085 33.9001 31.8335C33.0723 32.3398 31.6435 32.8639 30.7986 32.7685C30.3109 32.5422 29.545 30.9994 29.6412 30.1536C30.0088 26.1688 27.0997 25.4123 24.304 24.4115C21.0206 23.1843 18.2935 24.5899 16.8028 27.163C16.0094 28.8724 15.7209 31.4098 14.6493 31.8029C13.2205 32.327 11.2525 30.8199 9.43217 30.2718C6.27924 29.4021 3.92652 31.2782 1.81766 33.2675C0.0659903 35.1259 1.07573 36.7818 2.44266 38.3067C2.81702 38.7772 2.85134 39.9804 2.51131 40.713C2.04076 41.0883 0.96917 41.4813 0.237611 41.1418C-2.07041 40.3673 -3.48204 41.493 -4.76317 42.9761C-7.79596 46.3175 -7.57964 49.6828 -5.67351 53.2389C-4.14175 56.3243 -5.29236 58.1648 -8.78532 58.0276C-11.0762 57.8548 -13.4975 57.3246 -15.7884 57.1517C-16.8772 56.9432 -18.6632 57.5983 -18.8898 58.0867C-19.2574 62.0715 -22.4722 63.2507 -24.9383 65.3711C-27.1776 67.003 -28.6683 69.5761 -27.2842 71.7026C-25.2819 74.4128 -26.8069 75.7827 -28.0708 77.8674C-28.7681 78.731 -29.2214 79.7079 -29.431 80.7979C-29.2833 81.7568 -28.8746 83.4306 -28.1431 83.7701C-23.867 86.0516 -23.867 86.0516 -26.0378 90.0899C-26.2645 90.5783 -26.8484 91.1978 -26.7178 91.5552C-25.9348 93.6995 -25.3785 96.3322 -23.881 98.2145C-22.1397 100.21 -20.7624 97.8811 -19.2374 96.5112C-17.8258 95.3855 -15.9093 95.0878 -14.3672 94.3195C-14.2023 95.88 -14.0375 97.4406 -13.7593 98.757C-13.3506 100.431 -12.6981 102.218 -11.9322 103.76C-10.0329 102.861 -8.00304 102.319 -6.34755 101.307C-5.16261 100.669 -4.48254 99.2041 -3.42811 98.2095C-2.95756 97.8342 -2.24317 97.5722 -1.52877 97.3101C-1.26776 98.0249 -0.762887 98.8529 -0.85907 99.6987C-0.824746 100.902 -1.03428 101.992 -0.999951 103.195C2.06717 101.057 3.31396 98.3706 0.954456 95.7914C-2.15377 92.271 -5.60204 89.4833 -8.93695 86.4514C-10.0429 85.6412 -11.3926 84.718 -13.2748 86.2189C-13.8587 86.8383 -16.0534 85.8197 -17.1593 85.0096C-17.647 84.7832 -17.829 82.621 -17.829 82.621C-15.703 81.2333 -15.0744 77.9633 -11.5814 78.1004C-9.53442 78.1601 -8.12279 77.0344 -9.99459 74.6816C-11.2482 72.9125 -10.5509 72.0488 -8.61729 72.3527C-6.92748 72.5434 -5.23767 72.734 -3.06016 73.1511C-2.52776 70.7269 -1.99535 68.3027 -1.46295 65.8784C-1.21909 65.9916 -0.861898 65.8606 -0.618045 65.9738C-0.339869 67.2902 -0.305542 68.4933 0.0859806 69.5655C0.364157 70.8819 0.886185 72.3114 1.16436 73.6278C2.33214 72.3889 3.49992 71.15 4.53719 69.5538C4.65053 69.3096 4.87722 68.8212 5.10391 68.3328C5.67064 67.1117 6.36788 66.2481 7.17846 65.1402C6.8041 64.6697 5.94203 63.9727 4.83611 63.1626C5.7772 62.4122 6.47444 61.5485 7.41552 60.7981C8.27759 61.495 8.78246 62.323 9.64452 63.0199C14.2881 61.3166 15.2635 61.7693 14.6693 66.2425C17.8222 67.1123 18.5641 63.5981 21.195 63.0383C20.7588 64.6167 20.1921 65.8377 19.7558 67.4161C19.1101 70.0846 18.351 72.9972 18.3063 75.6478C18.3235 76.2494 20.2914 77.7564 20.762 77.3812C23.6196 76.333 26.2161 74.57 29.3004 73.0334C28.1773 71.6217 27.6553 70.1922 26.5494 69.382C24.4509 67.5176 25.6015 65.6772 26.7521 63.8367C26.9788 63.3483 27.9371 63.1994 28.5381 63.1816C28.782 63.2948 29.4002 63.8785 29.4173 64.4801C29.6784 65.1949 29.3383 65.9275 29.3555 66.5291C33.1542 64.7304 34.7478 65.7669 34.9984 70.3354C40.9746 68.9538 40.0575 74.7612 42.0598 77.4715C42.156 76.6257 42.0255 76.2683 41.895 75.9109C41.5996 73.9929 42.0187 71.8129 44.4229 71.7416C46.5832 71.557 46.5214 73.606 46.6862 75.1666C46.9987 77.6861 47.9123 80.1878 44.9585 82.0818C44.6013 82.2128 44.6185 82.8144 44.749 83.1718C45.2881 85.203 45.4701 87.3651 46.1398 89.7537C47.2114 89.3606 47.9258 89.0985 48.8841 88.9497C49.4851 88.9318 50.2167 89.2714 50.7044 89.4977C49.4748 92.7856 50.955 94.0663 53.9775 94.5787C53.9775 94.5787 54.2213 94.6918 54.108 94.9361C55.1005 95.9904 55.4027 102.364 54.8359 103.585C54.4959 104.317 53.912 104.937 53.3281 105.556C54.4169 105.765 55.2618 105.86 56.3505 106.069C56.5944 106.182 57.0821 106.408 57.8137 106.748C56.8726 107.498 56.0448 108.004 55.7048 108.737C55.2514 109.714 55.1724 111.161 55.7906 111.745C58.655 115.152 58.655 115.152 55.9794 118.362C55.7527 118.851 55.526 119.339 55.4127 119.584C56.5357 120.995 57.5283 122.05 58.6514 123.461C59.0086 123.33 59.6096 123.312 60.0802 122.937C62.3196 121.305 64.6723 119.429 67.8424 120.9C68.5739 121.24 70.0027 120.716 70.7 119.852C71.2667 118.631 72.5306 116.547 74.0385 114.575ZM54.5438 114.431C51.8786 113.788 49.5706 113.013 47.5236 112.954C43.7867 112.703 40.6338 111.834 37.9171 109.385C34.2078 105.883 34.4964 103.346 39.1228 101.041C41.4927 99.7661 44.1064 98.6047 46.5896 97.086C45.3808 92.6663 42.688 95.275 40.4143 95.7038C35.9803 96.3171 31.5634 97.532 27.2427 97.9011C23.2792 98.1392 21.8951 96.0127 22.7503 92.2543C23.7018 87.6501 26.1164 83.7249 29.6369 80.6099C31.519 79.109 33.4012 77.6081 35.2834 76.1072C35.1529 75.7498 35.2662 75.5056 35.1357 75.1482C33.5764 75.3149 31.8866 75.1242 30.7017 75.7615C27.9746 77.1671 25.378 78.93 22.6509 80.3356C19.5667 81.8722 17.0148 80.9846 16.1974 77.6371C15.5277 75.2486 15.9296 72.467 15.7305 69.7032C13.1786 68.8156 13.0034 71.1088 12.4538 72.9314C11.6157 77.2914 10.9081 82.0088 10.07 86.3688C9.9738 87.2146 9.03272 87.9651 8.57934 88.9419C7.60393 88.4892 6.38466 87.9233 5.87979 87.0953C3.48596 83.3129 1.33598 79.6437 -0.813997 75.9745C-2.3733 76.1412 -3.9326 76.3079 -5.4919 76.4746C-6.51201 78.6725 -7.53211 80.8703 -8.66557 83.3124C-7.69016 83.7651 -6.58424 84.5752 -5.60883 85.0279C0.0341138 88.8343 5.09317 93.2601 5.90016 100.461C6.11648 103.827 5.73174 107.21 5.59087 110.706C4.98623 119.033 3.89389 127.134 0.754543 135.175C-0.36175 138.218 -2.09626 140.678 -5.06719 141.971C-6.25213 142.608 -7.43707 143.245 -8.86587 143.769C-8.13431 144.109 -7.40274 144.448 -6.9322 144.073C-4.07462 143.025 -1.52275 143.913 1.04629 145.402C3.61532 146.891 6.42821 148.493 9.33729 149.25C12.2464 150.007 14.5715 151.383 15.8595 154.355C16.069 153.265 16.1652 152.419 16.2614 151.573C16.9861 147.458 17.467 143.229 18.4357 139.226C18.8547 137.046 20.1187 134.961 21.0254 133.008C22.4818 129.231 23.9381 125.455 25.6383 121.792C29.2653 113.977 33.5346 111.804 41.4684 115.783C43.1753 116.575 45.1261 117.48 46.9293 117.427C48.8801 118.332 52.0159 118.601 54.5438 114.431ZM84.0647 73.8162C85.1363 73.4231 86.4518 73.1432 87.3928 72.3927C88.8045 71.2671 89.8417 69.6708 90.879 68.0745C92.0296 66.2341 93.5375 64.2626 94.0699 61.8384C94.8118 58.3242 93.3143 56.4419 89.9347 56.0605C88.2449 55.8699 86.3284 56.1676 83.9242 56.239C83.7594 54.6784 83.5946 53.1178 83.4297 51.5572C82.7704 45.3149 79.7137 43.5994 74.5034 46.5237C72.9612 47.292 72.2468 47.5541 71.7076 45.5229C71.2989 43.8492 70.9864 41.3296 69.8805 40.5195C67.0505 38.3155 64.0899 35.7542 59.3501 38.3033C60.4321 34.0564 57.7841 34.0146 55.4932 33.8418C53.2023 33.6689 50.5714 34.2287 49.8124 37.1413C49.4895 38.4755 49.7677 39.7919 50.1763 41.4657C49.5753 41.4835 48.3732 41.5192 46.9272 41.4417C49.8535 42.7999 53.4769 43.2944 54.861 45.4209C56.2451 47.5474 55.747 51.1748 55.9634 54.5401C59.1095 50.9546 62.9768 51.5623 66.7308 52.4142C68.3073 52.8491 70.2581 53.7545 71.1373 55.0531C73.0091 57.4059 74.3932 59.5324 77.8862 59.6695C79.0883 59.6339 80.1942 60.444 81.3001 61.2541C84.8789 64.3992 85.2429 68.7235 84.0647 73.8162ZM74.1139 121.437C79.1833 122.009 82.8858 121.056 86.4578 119.746C90.387 118.304 90.3698 117.703 88.1065 114.278C86.8529 112.509 87.8558 109.709 89.8685 108.566C91.7679 107.666 93.7805 106.523 95.4189 104.909C98.9394 101.794 98.7917 100.835 96.0407 97.1835C94.6566 95.057 91.9399 92.6088 95.7214 90.2086C96.4358 89.9465 96.611 87.6533 96.2194 86.5812C95.1754 83.7221 93.4169 81.125 89.7935 80.6305C86.0395 79.7786 85.3937 82.447 84.1298 84.5317C88.4401 88.0163 88.8556 94.1454 84.6379 98.1241C84.054 98.7435 83.13 100.096 83.5044 100.566C84.7923 103.538 83.415 105.867 82.1511 107.952C79.7536 112.479 77.2257 116.648 74.1139 121.437ZM24.7355 94.3629C31.3985 95.9714 36.8699 93.7619 42.585 91.6655C39.1368 88.8778 40.9674 85.5721 41.4827 82.5463C40.3768 81.7362 39.5147 81.0392 38.4088 80.2291C37.059 79.3058 35.7264 78.9841 33.9576 80.2408C29.7227 83.6179 26.367 88.2935 24.7355 94.3629ZM-10.5489 148.034C-4.08858 155.188 3.58421 158.452 12.7133 157.941C12.0093 154.349 9.79747 152.729 6.28734 151.99C4.10983 151.573 1.91515 150.554 0.19102 149.16C-3.1439 146.128 -6.50636 146.349 -10.5489 148.034ZM38.1542 105.043C41.1662 109.409 44.9202 110.261 49.2409 109.892C49.2513 106.038 49.2617 102.185 49.5159 98.4441C45.9611 100.356 42.1795 102.756 38.1542 105.043ZM6.52554 84.4269C6.88274 84.2959 7.12659 84.4091 7.48379 84.278C8.07805 79.8048 8.91617 75.4448 9.51043 70.9716C9.02273 70.7453 8.77887 70.6321 8.29117 70.4057C6.42616 72.5082 4.44779 74.8549 2.58278 76.9574C3.98404 79.6855 5.25479 82.0562 6.52554 84.4269Z" fill="#020202"/>
</g>
</svg>
