<svg width="20" height="20" viewBox="0 0 20 20" fill="none" xmlns="http://www.w3.org/2000/svg">
<path d="M13.8503 5.39496H13.678C13.6561 3.33579 12.0202 1.66663 10.0098 1.66663C8.99725 1.68079 8.10254 2.04996 7.40612 2.75913C6.71863 3.45746 6.33669 4.38746 6.32207 5.39496H6.14979C3.90773 5.39496 2.08337 7.26579 2.08337 9.56579V14.1625C2.08337 16.4625 3.90773 18.3333 6.14979 18.3333C6.48622 18.3333 6.75926 18.0533 6.75926 17.7083C6.75926 17.3633 6.48622 17.0833 6.14979 17.0833C4.57978 17.0833 3.30232 15.7733 3.30232 14.1625V9.56579C3.30232 7.95496 4.57978 6.64496 6.14979 6.64496H6.318V7.96246C6.318 8.30746 6.59105 8.58746 6.92748 8.58746C7.26391 8.58746 7.53695 8.30746 7.53695 7.96246V5.42413C7.53939 4.75163 7.79781 4.11996 8.26344 3.64579C8.73071 3.17329 9.354 2.95413 10.0074 2.91663C11.3474 2.91663 12.4371 4.02496 12.4591 5.39496H9.79282C9.45639 5.39496 9.18334 5.67496 9.18334 6.01996C9.18334 6.36496 9.45639 6.64496 9.79282 6.64496H12.4631V7.96246C12.4631 8.30746 12.7362 8.58746 13.0726 8.58746C13.409 8.58746 13.6821 8.30746 13.6821 7.96246V6.64496H13.8503C15.4203 6.64496 16.6978 7.95496 16.6978 9.56579V14.1625C16.6978 15.7733 15.4203 17.0833 13.8503 17.0833H9.46939C9.13296 17.0833 8.85992 17.3633 8.85992 17.7083C8.85992 18.0533 9.13296 18.3333 9.46939 18.3333H13.8503C16.0923 18.3333 17.9167 16.4625 17.9167 14.1625V9.56579C17.9167 7.26579 16.0923 5.39496 13.8503 5.39496" fill="url(#paint0_linear)"/>
<path d="M13.0883 8.12476V5.43491C13.0883 3.72926 11.7056 2.34656 9.99997 2.34656V2.34656C8.29432 2.34656 6.91162 3.72926 6.91162 5.43491V8.12476" stroke="url(#paint1_linear)" stroke-width="1.5" stroke-linecap="round" stroke-linejoin="round"/>
<defs>
<linearGradient id="paint0_linear" x1="10" y1="1.66663" x2="10" y2="18.3333" gradientUnits="userSpaceOnUse">
<stop stop-color="#FE5626"/>
<stop offset="1" stop-color="#F23F0E"/>
</linearGradient>
<linearGradient id="paint1_linear" x1="9.99997" y1="2.34656" x2="9.99997" y2="8.12476" gradientUnits="userSpaceOnUse">
<stop stop-color="#FE5626"/>
<stop offset="1" stop-color="#F23F0E"/>
</linearGradient>
</defs>
</svg>
