<svg width="57" height="68" viewBox="0 0 57 68" fill="none" xmlns="http://www.w3.org/2000/svg">
<path d="M43.8121 26.2693C43.8121 26.8571 43.6219 27.4479 43.2364 27.898L39.418 32.3675C38.6523 33.2614 37.415 33.2583 36.6545 32.3583C35.8939 31.4613 35.8939 30.0103 36.6597 29.1102L40.4807 24.6407C41.2465 23.7468 42.4811 23.7498 43.2416 24.6499C43.6219 25.0968 43.8121 25.6846 43.8121 26.2693" fill="#FE5626"/>
<path d="M49.5937 19.5038C49.5937 19.8008 49.5442 20.0977 49.4453 20.3793C49.1431 21.2396 48.432 21.7998 47.6402 21.7998L15.7176 21.7998C14.6393 21.7998 13.7642 20.7712 13.7642 19.5038C13.7642 18.2333 14.6393 17.2078 15.7176 17.2078L42.9102 17.2078L38.0421 11.5168C37.2789 10.6229 37.2763 9.16874 38.0369 8.2687C38.7974 7.37173 40.0347 7.36867 40.8004 8.26258L49.0181 17.8782C49.3958 18.316 49.5937 18.9038 49.5937 19.5038" fill="black"/>
<path d="M20.9119 58.0933C20.9119 58.678 20.7218 59.2658 20.3415 59.7127C19.5809 60.6127 18.3463 60.6158 17.5806 59.7188L13.7595 55.2493C12.9938 54.3523 12.9938 52.9012 13.7543 52.0012C14.5149 51.1042 15.7521 51.1012 16.5179 51.9951L20.3363 56.4677C20.7218 56.9146 20.9119 57.5055 20.9119 58.0933" fill="#FE5626"/>
<path d="M43.2321 46.8568C43.2322 48.1242 42.357 49.1528 41.2787 49.1528L9.35868 49.1528C8.56687 49.1528 7.8558 48.5926 7.55366 47.7324C7.25413 46.8783 7.41822 45.8864 7.98083 45.2313L17.579 33.9962C18.3447 33.0992 19.5819 33.1022 20.3425 34.0023C21.103 34.9023 21.103 36.3534 20.3373 37.2473L14.0913 44.5608L41.2787 44.5608C42.357 44.5608 43.2321 45.5894 43.2321 46.8568" fill="black"/>
</svg>
