<svg width="41" height="41" viewBox="0 0 41 41" fill="none" xmlns="http://www.w3.org/2000/svg">
<path d="M38.9697 19.7228C39.3739 19.7275 39.7632 19.5702 40.0507 19.286C40.3382 19.0018 40.5 18.6143 40.5 18.2101V13.0737C40.5 5.35166 35.6803 0.567139 28.011 0.567139H13.0066C5.28452 0.567139 0.5 5.35166 0.5 13.0737V28.0781C0.5 35.7826 5.28452 40.5671 13.0066 40.5671H28.011C35.7155 40.5671 40.5 35.7826 40.5 28.0781C40.5 27.2329 39.8148 26.5478 38.9697 26.5478C38.1245 26.5478 37.4393 27.2329 37.4393 28.0781C37.4393 34.1467 34.0972 37.5065 28.011 37.5065H13.0066C6.9204 37.5065 3.56069 34.1467 3.56069 28.0781V13.0737C3.56069 6.98754 6.9204 3.62782 13.0066 3.62782H28.011C34.0972 3.62782 37.4393 6.96995 37.4393 13.0737V18.1573C37.4393 19.0025 38.1245 19.6876 38.9697 19.6876V19.7228Z" fill="white"/>
<path d="M33.5449 9.52271C33.5449 10.6273 32.6495 11.5227 31.5449 11.5227C30.4404 11.5227 29.5449 10.6273 29.5449 9.52271C29.5449 8.41814 30.4404 7.52271 31.5449 7.52271C32.6495 7.52271 33.5449 8.41814 33.5449 9.52271Z" fill="white"/>
<path fill-rule="evenodd" clip-rule="evenodd" d="M13.0254 22.1726C13.0254 26.3007 16.3719 29.6472 20.5 29.6472C21.3837 29.6472 22.1 30.3635 22.1 31.2472C22.1 32.1308 21.3837 32.8472 20.5 32.8472C14.6046 32.8472 9.82544 28.068 9.82544 22.1726C9.82544 21.7952 9.84509 21.4218 9.88353 21.0535C9.97525 20.1746 10.7621 19.5365 11.641 19.6282C12.5198 19.72 13.158 20.5068 13.0662 21.3857C13.0393 21.6438 13.0254 21.9063 13.0254 22.1726Z" fill="white"/>
<path fill-rule="evenodd" clip-rule="evenodd" d="M14.6116 15.0846C14.1728 14.3176 14.4389 13.3401 15.2059 12.9013C16.7676 12.0079 18.5766 11.4978 20.4999 11.4978C26.3953 11.4978 31.1745 16.277 31.1745 22.1724C31.1745 24.548 30.3966 26.7466 29.0821 28.521C28.5561 29.231 27.5541 29.3803 26.8441 28.8543C26.134 28.3283 25.9848 27.3263 26.5108 26.6162C27.4309 25.3741 27.9745 23.8391 27.9745 22.1724C27.9745 18.0443 24.628 14.6978 20.4999 14.6978C19.1486 14.6978 17.8856 15.055 16.7949 15.6789C16.0279 16.1177 15.0504 15.8516 14.6116 15.0846Z" fill="white"/>
</svg>
