<svg width="24" height="25" viewBox="0 0 24 25" fill="none" xmlns="http://www.w3.org/2000/svg">
<path d="M12.0333 2.0835H11.9999C7.32848 2.0835 3.51844 6.02709 3.5 10.9509C3.57727 13.2538 4.32453 15.4416 5.66011 17.275C7.0993 19.271 9.28224 21.3849 11.3563 22.7908C11.4827 22.8766 11.6232 22.9168 11.7628 22.9168C12.007 22.9168 12.2467 22.7926 12.3889 22.5642C12.6146 22.2043 12.5171 21.7238 12.1712 21.4899C10.2341 20.1763 8.19604 18.2032 6.85256 16.3396C5.70138 14.7602 5.05861 12.8774 4.99276 10.897C5.00768 6.88761 8.14862 3.63554 11.9999 3.63554H12.0272C15.8916 3.65198 19.022 6.93602 19.0071 11.0294C18.9527 14.0093 17.1649 16.557 15.6739 18.1684C15.2304 18.6499 14.7589 19.1121 14.2742 19.5424C13.9607 19.821 13.923 20.3106 14.1908 20.6376C14.4586 20.9638 14.9292 21.0021 15.2427 20.7235C15.7661 20.2595 16.2736 19.7625 16.7504 19.2446C18.4258 17.4331 20.4366 14.5418 20.4999 11.0577C20.4999 11.0541 20.4999 10.9655 20.4999 10.9609C20.5183 6.08555 16.7197 2.10268 12.0333 2.0835Z" fill="#FF8968"/>
<path d="M11.9973 12.8691C11.0367 12.8691 10.2552 12.0552 10.2552 11.0567C10.2552 10.6274 9.92065 10.2803 9.50883 10.2803C9.097 10.2803 8.76245 10.6274 8.76245 11.0567C8.76245 12.9121 10.2139 14.4212 11.9973 14.4212C13.7807 14.4212 15.2322 12.9121 15.2322 11.0567C15.2322 9.20051 13.7807 7.69141 11.9973 7.69141C11.5855 7.69141 11.251 8.03854 11.251 8.46788C11.251 8.89632 11.5855 9.24345 11.9973 9.24345C12.958 9.24345 13.7395 10.0574 13.7395 11.0567C13.7395 12.0552 12.958 12.8691 11.9973 12.8691" fill="#FE5626"/>
</svg>
