<svg width="27" height="27" viewBox="0 0 27 27" fill="none" xmlns="http://www.w3.org/2000/svg">
<path d="M13.5 24.9999C12.9477 24.9999 12.5 25.4476 12.5 25.9999C12.5 26.5522 12.9477 26.9999 13.5 26.9999V24.9999ZM13.5 1.99988C14.0523 1.99988 14.5 1.55216 14.5 0.999878C14.5 0.447593 14.0523 -0.00012207 13.5 -0.00012207V1.99988ZM21.5882 4.42253L21.8638 3.46126L18.1709 2.4025L20.8789 5.12744L21.5882 4.42253ZM5.41176 22.5772L5.13617 23.5385L8.82911 24.5973L6.12107 21.8723L5.41176 22.5772ZM25.7244 6.64865C26.2553 6.80086 26.8091 6.49387 26.9613 5.96297C27.1135 5.43208 26.8065 4.87831 26.2756 4.7261L25.7244 6.64865ZM1.2756 20.3511C0.744699 20.1989 0.190933 20.5059 0.0387263 21.0368C-0.113481 21.5677 0.193508 22.1214 0.724405 22.2737L1.2756 20.3511ZM24.2647 13.4999C24.2647 19.9091 19.3889 24.9999 13.5 24.9999V26.9999C20.606 26.9999 26.2647 20.8977 26.2647 13.4999H24.2647ZM2.73529 13.4999C2.73529 7.09062 7.61107 1.99988 13.5 1.99988V-0.00012207C6.394 -0.00012207 0.735294 6.10201 0.735294 13.4999H2.73529ZM20.8789 5.12744C22.958 7.21946 24.2647 10.1908 24.2647 13.4999H26.2647C26.2647 9.65939 24.7468 6.18213 22.2975 3.71763L20.8789 5.12744ZM6.12107 21.8723C4.04201 19.7803 2.73529 16.809 2.73529 13.4999H0.735294C0.735294 17.3404 2.25324 20.8176 4.70246 23.2821L6.12107 21.8723ZM21.3126 5.38381L25.7244 6.64865L26.2756 4.7261L21.8638 3.46126L21.3126 5.38381ZM5.68736 21.6159L1.2756 20.3511L0.724405 22.2737L5.13617 23.5385L5.68736 21.6159Z" fill="white"/>
</svg>
