<svg width="21" height="21" viewBox="0 0 21 21" fill="none" xmlns="http://www.w3.org/2000/svg">
<path d="M14.2382 5.90033H14.0659C14.044 3.84116 12.4081 2.172 10.3977 2.172C9.38513 2.18616 8.49042 2.55533 7.794 3.2645C7.10651 3.96283 6.72457 4.89283 6.70994 5.90033H6.53767C4.29561 5.90033 2.47125 7.77116 2.47125 10.0712V14.6678C2.47125 16.9678 4.29561 18.8387 6.53767 18.8387C6.8741 18.8387 7.14714 18.5587 7.14714 18.2137C7.14714 17.8687 6.8741 17.5887 6.53767 17.5887C4.96766 17.5887 3.6902 16.2787 3.6902 14.6678V10.0712C3.6902 8.46033 4.96766 7.15033 6.53767 7.15033H6.70588V8.46783C6.70588 8.81283 6.97893 9.09283 7.31536 9.09283C7.65179 9.09283 7.92483 8.81283 7.92483 8.46783V5.9295C7.92727 5.257 8.18568 4.62533 8.65132 4.15116C9.11859 3.67866 9.74188 3.4595 10.3952 3.422C11.7353 3.422 12.825 4.53033 12.8469 5.90033H10.1807C9.84427 5.90033 9.57122 6.18033 9.57122 6.52533C9.57122 6.87033 9.84427 7.15033 10.1807 7.15033H12.851V8.46783C12.851 8.81283 13.1241 9.09283 13.4605 9.09283C13.7969 9.09283 14.07 8.81283 14.07 8.46783V7.15033H14.2382C15.8082 7.15033 17.0856 8.46033 17.0856 10.0712V14.6678C17.0856 16.2787 15.8082 17.5887 14.2382 17.5887H9.85727C9.52084 17.5887 9.2478 17.8687 9.2478 18.2137C9.2478 18.5587 9.52084 18.8387 9.85727 18.8387H14.2382C16.4802 18.8387 18.3046 16.9678 18.3046 14.6678V10.0712C18.3046 7.77116 16.4802 5.90033 14.2382 5.90033" fill="white"/>
<path d="M13.4763 8.63013V5.94028C13.4763 4.23463 12.0936 2.85193 10.3879 2.85193V2.85193C8.68226 2.85193 7.29956 4.23463 7.29956 5.94028V8.63013" stroke="white" stroke-width="1.5" stroke-linecap="round" stroke-linejoin="round"/>
</svg>
