<svg width="22" height="22" viewBox="0 0 22 22" fill="none" xmlns="http://www.w3.org/2000/svg">
<path d="M1.28166 2.91834C0.870353 2.51644 0.873141 1.8649 1.27887 1.46299C1.65207 1.09333 2.23967 1.06137 2.65075 1.36712L2.75819 1.45888L8.83998 7.41606C9.04494 7.61633 9.14812 7.88106 9.14812 8.14442C9.14812 8.40641 9.04494 8.66978 8.84277 8.87004C8.46957 9.23971 7.88198 9.27166 7.4709 8.96591L7.36345 8.87416L1.28166 2.91834Z" fill="url(#paint0_linear)"/>
<path d="M20.9835 19.4007C21.3948 19.8026 21.392 20.4541 20.9863 20.856C20.6131 21.2257 20.0255 21.2576 19.6144 20.9519L19.5069 20.8601L13.4252 14.9029C13.2202 14.7027 13.117 14.4379 13.117 14.1746C13.117 13.9126 13.2202 13.6492 13.4224 13.449C13.7956 13.0793 14.3832 13.0473 14.7942 13.3531L14.9017 13.4448L20.9835 19.4007Z" fill="url(#paint1_linear)"/>
<path d="M2.16357 20.1144L20.059 2.21895" stroke="black" stroke-width="2" stroke-linecap="round" stroke-linejoin="round"/>
<defs>
<linearGradient id="paint0_linear" x1="5.061" y1="1.15951" x2="5.061" y2="9.17353" gradientUnits="userSpaceOnUse">
<stop stop-color="#FE5626"/>
<stop offset="1" stop-color="#F23F0E"/>
</linearGradient>
<linearGradient id="paint1_linear" x1="17.2041" y1="21.1595" x2="17.2041" y2="13.1455" gradientUnits="userSpaceOnUse">
<stop stop-color="#FE5626"/>
<stop offset="1" stop-color="#F23F0E"/>
</linearGradient>
</defs>
</svg>
