<svg width="40" height="41" viewBox="0 0 40 41" fill="none" xmlns="http://www.w3.org/2000/svg">
<path d="M12.3714 32.1817C10.9797 32.1817 9.84644 33.3382 9.84644 34.7584C9.84644 36.1785 10.9797 37.3334 12.3714 37.3334C13.763 37.3334 14.8946 36.1785 14.8946 34.7584C14.8946 33.3382 13.763 32.1817 12.3714 32.1817" fill="black"/>
<path d="M31.1243 32.1817C29.7327 32.1817 28.6011 33.3382 28.6011 34.7584C28.6011 36.1785 29.7327 37.3334 31.1243 37.3334C32.516 37.3334 33.6493 36.1785 33.6493 34.7584C33.6493 33.3382 32.516 32.1817 31.1243 32.1817" fill="black"/>
<path d="M35.8157 11.7742C35.154 10.9935 34.1924 10.5445 33.1807 10.5445H15.2729C14.5829 10.5445 14.0229 11.116 14.0229 11.8201C14.0229 12.5242 14.5829 13.0957 15.2729 13.0957H33.1807C33.5724 13.0957 33.8157 13.3134 33.9257 13.4426C34.0357 13.5736 34.2124 13.8508 34.1557 14.2454L32.5741 25.4008C32.4491 26.275 31.7025 26.9349 30.8358 26.9349H12.6513C11.7296 26.9349 10.978 26.229 10.9013 25.2936L9.29635 5.78236C9.24968 5.20409 8.82469 4.72958 8.26471 4.63093L4.79646 4.01696C4.10814 3.90471 3.46816 4.36221 3.3515 5.05783C3.23483 5.75174 3.68982 6.41164 4.3698 6.5324L6.88641 6.9763L8.4097 25.5062C8.59636 27.775 10.4197 29.486 12.6513 29.486H30.8358C32.9374 29.486 34.7474 27.8873 35.0474 25.7664L36.6307 14.6111C36.7757 13.5872 36.4773 12.5548 35.8157 11.7742" fill="black"/>
<path d="M28.1645 19.3827C28.8545 19.3827 29.4145 18.8113 29.4145 18.1072C29.4145 17.403 28.8545 16.8316 28.1645 16.8316H23.5429C22.8513 16.8316 22.293 17.403 22.293 18.1072C22.293 18.8113 22.8513 19.3827 23.5429 19.3827H28.1645Z" fill="#FE5626"/>
</svg>
