<svg width="67" height="66" viewBox="0 0 67 66" fill="none" xmlns="http://www.w3.org/2000/svg">
<mask id="mask0" mask-type="alpha" maskUnits="userSpaceOnUse" x="0" y="0" width="67" height="67">
<g clip-path="url(#clip0)">
<path d="M66.4945 37.0166C66.4434 35.6727 66.0196 34.4194 65.3266 33.355C65.3081 33.3181 65.2881 33.2816 65.2643 33.2464L64.1145 31.5348C58.4403 23.088 51.1889 16.0496 42.5616 10.6149C42.1088 10.3297 41.5106 10.4656 41.2255 10.9183C40.9402 11.371 41.076 11.9693 41.5288 12.2543C49.091 17.0182 55.5654 23.0494 60.812 30.2059C60.3913 30.1117 59.9578 30.053 59.5139 30.036C57.5171 29.961 55.6274 30.6799 54.1914 32.0625C53.0067 33.203 52.263 34.6681 52.0378 36.2697C46.3052 28.5482 38.7441 22.273 30.0886 18.0724C28.8078 17.4508 27.8458 16.3678 27.3796 15.0226C26.9134 13.6775 26.999 12.2314 27.6207 10.9505C28.2423 9.66974 29.3253 8.70762 30.6704 8.24155C32.0157 7.77547 33.4616 7.86112 34.7425 8.48272C35.8283 9.00964 36.9298 9.58087 38.0162 10.1804C38.4846 10.4389 39.0739 10.2686 39.3325 9.80021C39.591 9.33181 39.4208 8.7425 38.9523 8.48388C37.8363 7.86796 36.7046 7.2811 35.5884 6.73946C33.8419 5.89192 31.87 5.77501 30.0359 6.41083C28.2017 7.04639 26.7248 8.35832 25.8773 10.1047C25.4095 11.0685 25.1656 12.1009 25.1466 13.141L12.0408 26.202C11.6618 26.5797 11.6608 27.1932 12.0384 27.5722C12.2276 27.7621 12.4762 27.8572 12.7247 27.8572C12.9721 27.8572 13.2196 27.763 13.4086 27.5745L25.505 15.5196C25.5198 15.5653 25.533 15.6113 25.5489 15.6569C25.8801 16.6127 26.3964 17.4702 27.0607 18.1935C26.6897 19.0765 26.4928 20.0314 26.4928 20.9959C26.4928 24.9804 29.7344 28.2221 33.7189 28.2221C35.7697 28.2221 37.6985 27.3533 39.0582 25.8605C40.4549 26.9253 41.803 28.0529 43.0978 29.2394H41.9817C41.4466 29.2394 41.0128 29.6732 41.0128 30.2082C41.0128 30.7433 41.4466 31.1771 41.9817 31.1771H45.113C46.9615 33.042 48.686 35.0325 50.2686 37.1368H41.6418C41.6931 36.861 41.7206 36.5807 41.7206 36.2996C41.7206 33.7441 39.6415 31.6651 37.0861 31.6651C34.5307 31.6651 32.4515 33.7442 32.4515 36.2996C32.4515 36.5806 32.4783 36.861 32.5296 37.1368H10.3115C10.3442 36.9037 10.3616 36.6675 10.3616 36.4288C10.3616 34.8908 9.64404 33.4426 8.47071 32.4955L10.4809 30.4923C10.8599 30.1146 10.8609 29.5011 10.4832 29.1222C10.1055 28.7431 9.492 28.7422 9.11312 29.1198L1.17381 37.032C0.739124 37.465 0.499756 38.0414 0.499756 38.6548V42.2182C0.499756 43.5132 1.55334 44.5668 2.84835 44.5668H9.66303C10.1981 44.5668 10.6319 44.133 10.6319 43.598C10.6319 43.0629 10.1981 42.6291 9.66303 42.6291H2.84835C2.62177 42.6291 2.43743 42.4448 2.43743 42.2182V39.0745H11.5821C12.2289 40.3257 12.5695 41.7173 12.5695 43.1302V51.722C12.5695 53.6457 14.1345 55.2107 16.0583 55.2107C17.982 55.2107 19.547 53.6457 19.547 51.722V49.8528C19.547 49.3177 19.1132 48.884 18.5782 48.884C18.0431 48.884 17.6093 49.3177 17.6093 49.8528V51.722C17.6093 52.5773 16.9136 53.2731 16.0583 53.2731C15.203 53.2731 14.5072 52.5773 14.5072 51.722V43.1302C14.5072 41.7357 14.2345 40.3584 13.7125 39.0745H18.7292C17.9958 40.5561 17.6093 42.2012 17.6093 43.8554V45.724C17.6093 46.259 18.0431 46.6928 18.5782 46.6928C19.1132 46.6928 19.547 46.259 19.547 45.724V43.8554C19.547 42.4022 19.9104 40.9574 20.5979 39.6771L20.9215 39.0745H42.51V46.7719C42.51 48.6632 44.0488 50.202 45.9401 50.202C47.8314 50.202 49.3702 48.6632 49.3702 46.7719V39.0745H52.1343C52.6057 39.0745 53.0493 38.8903 53.3836 38.5559C53.7178 38.2214 53.9018 37.7776 53.9014 37.2987C53.9014 35.8365 54.4816 34.4727 55.5353 33.4582C56.5884 32.4444 57.9773 31.9164 59.4404 31.9723C62.2052 32.0773 64.4532 34.3253 64.5582 37.0901C64.6184 38.6764 63.9615 40.1879 62.8228 41.2326V37.2987C62.8228 36.3169 62.4128 35.3662 61.6979 34.6901C60.9732 34.0045 60.0243 33.6579 59.0285 33.7132C57.1585 33.8175 55.6705 35.3672 55.641 37.2415C55.6223 38.4231 56.1811 39.5257 57.1409 40.2137V42.629H52.2766C51.7415 42.629 51.3077 43.0628 51.3077 43.5978C51.3077 44.1329 51.7415 44.5667 52.2766 44.5667H57.1409V48.1603C57.1409 49.7098 58.3291 50.9795 59.8458 51.0509C59.892 51.0531 59.9381 51.0542 59.9841 51.0542C60.7177 51.0542 61.4087 50.7781 61.9426 50.2689C62.5019 49.7352 62.8227 48.986 62.8227 48.2131V43.6176C65.1652 42.2834 66.5975 39.7284 66.4945 37.0166ZM33.719 26.2846C30.803 26.2846 28.4306 23.9121 28.4306 20.996C28.4306 20.4853 28.5071 19.979 28.6506 19.4931C28.842 19.6086 34.8822 22.8529 37.4854 24.7028C36.5001 25.7047 35.1506 26.2846 33.719 26.2846ZM34.3892 36.2996C34.3892 34.8125 35.5991 33.6028 37.0861 33.6028C38.573 33.6028 39.7829 34.8127 39.7829 36.2996C39.7829 36.5885 39.7375 36.8684 39.6494 37.1368H34.5228C34.4347 36.8684 34.3892 36.5885 34.3892 36.2996ZM8.42395 36.4288C8.42395 36.67 8.39605 36.9065 8.34231 37.1368H3.81331L7.08708 33.8743C7.92132 34.4497 8.42395 35.3907 8.42395 36.4288ZM47.4325 46.772C47.4325 47.5949 46.763 48.2644 45.9401 48.2644C45.1172 48.2644 44.4477 47.5949 44.4477 46.772V39.0746H47.4324L47.4325 46.772ZM60.8853 48.2134C60.8853 48.4627 60.7858 48.695 60.6053 48.8672C60.425 49.0392 60.1877 49.1273 59.9372 49.1156C59.4639 49.0934 59.0788 48.6649 59.0788 48.1604V40.0948C59.0788 39.5237 58.7931 38.9909 58.3145 38.6698C57.8449 38.3549 57.5699 37.8323 57.5787 37.2721C57.5921 36.4238 58.2909 35.6951 59.1366 35.6481C59.5967 35.6227 60.033 35.7823 60.3667 36.098C60.7012 36.4144 60.8854 36.8408 60.8854 37.2988L60.8853 48.2134Z" fill="black"/>
<path d="M39.6034 42.6292H22.4614C21.9263 42.6292 21.4926 43.0629 21.4926 43.598C21.4926 44.133 21.9263 44.5668 22.4614 44.5668H26.5224V55.5651C26.5224 57.3329 27.9607 58.7712 29.7285 58.7712C31.4963 58.7712 32.9345 57.3329 32.9345 55.5651V55.1134C33.3238 55.2817 33.7525 55.3755 34.2029 55.3755C35.9708 55.3755 37.409 53.9372 37.409 52.1694V44.5667H39.6035C40.1386 44.5667 40.5724 44.1329 40.5724 43.5979C40.5724 43.0628 40.1386 42.6292 39.6034 42.6292ZM30.9967 55.5651C30.9967 56.2645 30.4277 56.8335 29.7283 56.8335C29.029 56.8335 28.4599 56.2645 28.4599 55.5651V44.6383H30.9967V52.1694V55.5651ZM35.4712 52.1695C35.4712 52.8689 34.9022 53.4379 34.2028 53.4379C33.5034 53.4379 32.9344 52.8689 32.9344 52.1695V44.6384H35.4712V52.1695Z" fill="#FE5626"/>
<path d="M45.94 51.8901C44.0487 51.8901 42.5099 53.4289 42.5099 55.3202V56.5646C42.5099 58.4559 44.0487 59.9946 45.94 59.9946C47.8313 59.9946 49.37 58.4559 49.37 56.5646V55.3202C49.37 53.4288 47.8313 51.8901 45.94 51.8901ZM47.4324 56.5644C47.4324 57.3873 46.7628 58.0568 45.94 58.0568C45.1171 58.0568 44.4476 57.3873 44.4476 56.5644V55.3201C44.4476 54.4972 45.1171 53.8277 45.94 53.8277C46.7628 53.8277 47.4324 54.4972 47.4324 55.3201V56.5644Z" fill="black"/>
<path d="M15.4805 30.8602C15.4805 32.9659 17.1936 34.6791 19.2994 34.6791C21.4051 34.6791 23.1183 32.9659 23.1183 30.8602C23.1183 28.7544 21.4051 27.0413 19.2994 27.0413C17.1936 27.0413 15.4805 28.7544 15.4805 30.8602ZM21.1806 30.8602C21.1806 31.8975 20.3367 32.7414 19.2994 32.7414C18.2621 32.7414 17.4181 31.8975 17.4181 30.8602C17.4181 29.8229 18.2621 28.9789 19.2994 28.9789C20.3367 28.9789 21.1806 29.8229 21.1806 30.8602Z" fill="black"/>
<path d="M12.8323 34.6792C12.9231 34.6792 13.0153 34.6662 13.1068 34.6394C13.62 34.4881 13.9133 33.9493 13.7621 33.4361L13.544 32.6965C13.3926 32.1832 12.8533 31.8901 12.3407 32.0412C11.8275 32.1925 11.5341 32.7313 11.6854 33.2445L11.9035 33.9841C12.0277 34.4058 12.4138 34.6792 12.8323 34.6792Z" fill="black"/>
<path d="M22.5373 24.7439C22.766 24.7439 22.9957 24.6633 23.1803 24.4994C23.5804 24.1442 23.6167 23.5317 23.2613 23.1317L22.8739 22.6956C22.5187 22.2955 21.9062 22.2593 21.5062 22.6146C21.1061 22.9698 21.0698 23.5822 21.4252 23.9823L21.8126 24.4184C22.004 24.634 22.27 24.7439 22.5373 24.7439Z" fill="black"/>
<path d="M27.7314 34.4273L28.3855 33.8332C28.7816 33.4735 28.8112 32.8608 28.4514 32.4647C28.0918 32.0687 27.4791 32.0391 27.0829 32.3988L26.4287 32.9929C26.0326 33.3527 26.0031 33.9654 26.3628 34.3614C26.554 34.572 26.8168 34.679 27.0804 34.679C27.3127 34.679 27.5459 34.5959 27.7314 34.4273Z" fill="black"/>
</g>
</mask>
<g mask="url(#mask0)">
<rect x="-3.07251" y="2.28784" width="74.667" height="63.0533" fill="white"/>
<rect x="11.095" y="39.0754" width="10.0161" height="16.5" fill="url(#paint0_linear)"/>
<rect x="24.8798" y="44.645" width="13.0985" height="16.5" fill="url(#paint1_linear)"/>
<rect x="41.4363" y="39.0886" width="9.71658" height="22.0033" fill="url(#paint2_linear)"/>
<rect x="55.5436" y="33.4875" width="7.32309" height="6.75684" fill="url(#paint3_linear)"/>
<rect x="57.1251" y="40.1609" width="5.69111" height="11.1185" fill="url(#paint4_linear)"/>
</g>
<defs>
<linearGradient id="paint0_linear" x1="16.2755" y1="74.6748" x2="5.54777" y2="72.5911" gradientUnits="userSpaceOnUse">
<stop stop-color="#FE5626"/>
<stop offset="1" stop-color="#F23F0E"/>
</linearGradient>
<linearGradient id="paint1_linear" x1="31.6546" y1="80.2443" x2="17.9785" y2="76.7705" gradientUnits="userSpaceOnUse">
<stop stop-color="#FE5626"/>
<stop offset="1" stop-color="#F23F0E"/>
</linearGradient>
<linearGradient id="paint2_linear" x1="46.4619" y1="86.5614" x2="35.8737" y2="85.0653" gradientUnits="userSpaceOnUse">
<stop stop-color="#FE5626"/>
<stop offset="1" stop-color="#F23F0E"/>
</linearGradient>
<linearGradient id="paint3_linear" x1="59.3312" y1="48.0657" x2="52.0657" y2="45.5461" gradientUnits="userSpaceOnUse">
<stop stop-color="#FE5626"/>
<stop offset="1" stop-color="#F23F0E"/>
</linearGradient>
<linearGradient id="paint4_linear" x1="60.0687" y1="64.1495" x2="53.9085" y2="63.1406" gradientUnits="userSpaceOnUse">
<stop stop-color="#FE5626"/>
<stop offset="1" stop-color="#F23F0E"/>
</linearGradient>
<clipPath id="clip0">
<rect width="66" height="66" fill="white" transform="translate(0.499756 0.000244141)"/>
</clipPath>
</defs>
</svg>
