<svg width="56" height="56" viewBox="0 0 56 56" fill="none" xmlns="http://www.w3.org/2000/svg">
<mask id="mask0" mask-type="alpha" maskUnits="userSpaceOnUse" x="0" y="0" width="56" height="56">
<g clip-path="url(#clip0)">
<path d="M55.6666 31.5914C55.6242 30.4737 55.2716 29.4312 54.6952 28.5459C54.6798 28.5152 54.6632 28.4849 54.6434 28.4555L53.687 27.0319C48.9675 20.0062 42.936 14.1519 35.7602 9.63158C35.3836 9.39434 34.886 9.50737 34.6488 9.88386C34.4116 10.2605 34.5245 10.758 34.9011 10.9952C41.1911 14.9576 46.5763 19.9741 50.9402 25.9266C50.5902 25.8482 50.2296 25.7994 49.8605 25.7853C48.1996 25.7229 46.6278 26.3208 45.4334 27.4708C44.448 28.4194 43.8294 29.6381 43.6422 30.9702C38.8739 24.5477 32.5849 19.3283 25.3856 15.8344C24.3203 15.3174 23.5202 14.4166 23.1324 13.2977C22.7446 12.1789 22.8159 10.976 23.3329 9.91072C23.8499 8.8454 24.7507 8.04514 25.8696 7.65748C26.9885 7.26981 28.1911 7.34105 29.2566 7.85808C30.1597 8.29635 31.0758 8.77147 31.9795 9.27013C32.3691 9.48513 32.8592 9.34351 33.0743 8.95392C33.2893 8.56432 33.1478 8.07415 32.7581 7.85904C31.8299 7.34674 30.8886 6.85862 29.9601 6.4081C28.5075 5.70315 26.8673 5.60591 25.3418 6.13476C23.8162 6.66339 22.5877 7.75461 21.8828 9.20716C21.4937 10.0088 21.2909 10.8675 21.2751 11.7327L10.3742 22.5963C10.0589 22.9105 10.0581 23.4207 10.3721 23.736C10.5296 23.8939 10.7363 23.973 10.943 23.973C11.1488 23.973 11.3546 23.8947 11.5118 23.7379L21.5731 13.7111C21.5855 13.7491 21.5965 13.7874 21.6097 13.8253C21.8852 14.6203 22.3146 15.3335 22.8671 15.9351C22.5585 16.6696 22.3948 17.4638 22.3948 18.266C22.3948 21.5802 25.091 24.2765 28.4052 24.2765C30.111 24.2765 31.7153 23.5538 32.8462 22.3122C34.0079 23.1979 35.1292 24.1358 36.2062 25.1227H35.2778C34.8328 25.1227 34.472 25.4835 34.472 25.9285C34.472 26.3735 34.8328 26.7343 35.2778 26.7343H37.8823C39.4199 28.2855 40.8543 29.9412 42.1706 31.6915H34.9951C35.0378 31.4621 35.0607 31.2289 35.0607 30.9951C35.0607 28.8695 33.3313 27.1403 31.2059 27.1403C29.0804 27.1403 27.351 28.8696 27.351 30.9951C27.351 31.2288 27.3733 31.4621 27.4159 31.6915H8.93581C8.963 31.4975 8.9775 31.3011 8.9775 31.1026C8.9775 29.8233 8.38064 28.6187 7.40471 27.8309L9.07667 26.1648C9.39192 25.8506 9.39278 25.3403 9.07861 25.0252C8.76444 24.7099 8.25418 24.7091 7.93904 25.0232L1.33543 31.6042C0.973877 31.9644 0.77478 32.4438 0.77478 32.9541V35.9179C0.77478 36.9951 1.65111 37.8714 2.72825 37.8714H8.39644C8.84148 37.8714 9.20228 37.5106 9.20228 37.0656C9.20228 36.6205 8.84148 36.2597 8.39644 36.2597H2.72825C2.53979 36.2597 2.38646 36.1064 2.38646 35.9179V33.3031H9.99265C10.5306 34.3439 10.814 35.5013 10.814 36.6765V43.8228C10.814 45.4229 12.1157 46.7246 13.7157 46.7246C15.3158 46.7246 16.6175 45.4229 16.6175 43.8228V42.2681C16.6175 41.8231 16.2567 41.4622 15.8117 41.4622C15.3667 41.4622 15.0058 41.8231 15.0058 42.2681V43.8228C15.0058 44.5342 14.4271 45.1129 13.7157 45.1129C13.0043 45.1129 12.4256 44.5342 12.4256 43.8228V36.6765C12.4256 35.5166 12.1988 34.371 11.7646 33.3031H15.9373C15.3273 34.5354 15.0058 35.9038 15.0058 37.2797V38.8339C15.0058 39.279 15.3667 39.6398 15.8117 39.6398C16.2567 39.6398 16.6175 39.279 16.6175 38.8339V37.2797C16.6175 36.0709 16.9198 34.8693 17.4916 33.8044L17.7608 33.3031H35.7173V39.7055C35.7173 41.2786 36.9972 42.5585 38.5703 42.5585C40.1434 42.5585 41.4233 41.2786 41.4233 39.7055V33.3031H43.7224C44.1145 33.3031 44.4835 33.1499 44.7615 32.8718C45.0395 32.5936 45.1925 32.2244 45.1922 31.8261C45.1922 30.6099 45.6748 29.4755 46.5512 28.6317C47.4271 27.7885 48.5824 27.3493 49.7993 27.3958C52.099 27.4831 53.9688 29.3529 54.0561 31.6526C54.1062 32.972 53.5598 34.2292 52.6127 35.0981V31.8261C52.6127 31.0095 52.2716 30.2187 51.677 29.6563C51.0743 29.0861 50.285 28.7978 49.4567 28.8438C47.9013 28.9305 46.6636 30.2196 46.6391 31.7785C46.6236 32.7613 47.0884 33.6785 47.8867 34.2507V36.2596H43.8407C43.3957 36.2596 43.0349 36.6204 43.0349 37.0655C43.0349 37.5105 43.3957 37.8713 43.8407 37.8713H47.8867V40.8603C47.8867 42.1492 48.875 43.2052 50.1365 43.2646C50.175 43.2665 50.2133 43.2673 50.2516 43.2673C50.8617 43.2673 51.4365 43.0377 51.8805 42.6142C52.3458 42.1703 52.6126 41.5471 52.6126 40.9043V37.0819C54.561 35.9722 55.7523 33.847 55.6666 31.5914ZM28.4053 22.6649C25.9798 22.6649 24.0066 20.6916 24.0066 18.2661C24.0066 17.8414 24.0702 17.4202 24.1895 17.0161C24.3488 17.1122 29.3727 19.8107 31.538 21.3493C30.7185 22.1826 29.596 22.6649 28.4053 22.6649ZM28.9627 30.9951C28.9627 29.7582 29.969 28.752 31.2059 28.752C32.4427 28.752 33.449 29.7583 33.449 30.9951C33.449 31.2354 33.4112 31.4682 33.3379 31.6915H29.0738C29.0005 31.4682 28.9627 31.2354 28.9627 30.9951ZM7.36582 31.1026C7.36582 31.3032 7.34261 31.4999 7.29791 31.6915H3.53087L6.25386 28.9778C6.94775 29.4564 7.36582 30.2391 7.36582 31.1026ZM39.8116 39.7056C39.8116 40.39 39.2547 40.9469 38.5703 40.9469C37.8859 40.9469 37.329 40.39 37.329 39.7056V33.3033H39.8115L39.8116 39.7056ZM51.0011 40.9045C51.0011 41.1119 50.9184 41.3051 50.7683 41.4483C50.6183 41.5914 50.4209 41.6647 50.2126 41.6549C49.8189 41.6364 49.4986 41.28 49.4986 40.8604V34.1518C49.4986 33.6767 49.2609 33.2336 48.8628 32.9665C48.4723 32.7046 48.2435 32.2699 48.2508 31.804C48.262 31.0984 48.8432 30.4923 49.5466 30.4532C49.9293 30.4321 50.2922 30.5648 50.5698 30.8274C50.848 31.0905 51.0012 31.4452 51.0012 31.8262L51.0011 40.9045Z" fill="black"/>
<path d="M33.2996 36.2598H19.0416C18.5965 36.2598 18.2357 36.6206 18.2357 37.0656C18.2357 37.5107 18.5965 37.8715 19.0416 37.8715H22.4193V47.0194C22.4193 48.4898 23.6156 49.6861 25.086 49.6861C26.5564 49.6861 27.7527 48.4898 27.7527 47.0194V46.6437C28.0765 46.7837 28.4331 46.8617 28.8077 46.8617C30.2781 46.8617 31.4744 45.6654 31.4744 44.195V37.8714H33.2997C33.7448 37.8714 34.1056 37.5106 34.1056 37.0655C34.1056 36.6205 33.7448 36.2598 33.2996 36.2598ZM26.1409 47.0194C26.1409 47.6011 25.6676 48.0744 25.0859 48.0744C24.5042 48.0744 24.0309 47.6011 24.0309 47.0194V37.9309H26.1409V44.195V47.0194ZM29.8626 44.1951C29.8626 44.7768 29.3893 45.2501 28.8076 45.2501C28.2259 45.2501 27.7526 44.7768 27.7526 44.1951V37.931H29.8626V44.1951Z" fill="#FE5626"/>
<path d="M38.5703 43.9626C36.9972 43.9626 35.7173 45.2425 35.7173 46.8156V47.8507C35.7173 49.4238 36.9972 50.7037 38.5703 50.7037C40.1434 50.7037 41.4233 49.4238 41.4233 47.8507V46.8156C41.4233 45.2424 40.1434 43.9626 38.5703 43.9626ZM39.8116 47.8506C39.8116 48.535 39.2547 49.0919 38.5703 49.0919C37.8859 49.0919 37.329 48.535 37.329 47.8506V46.8155C37.329 46.1311 37.8859 45.5742 38.5703 45.5742C39.2547 45.5742 39.8116 46.1311 39.8116 46.8155V47.8506Z" fill="black"/>
<path d="M13.2352 26.4707C13.2352 28.2222 14.6602 29.6472 16.4116 29.6472C18.1631 29.6472 19.5881 28.2222 19.5881 26.4707C19.5881 24.7193 18.1631 23.2943 16.4116 23.2943C14.6602 23.2943 13.2352 24.7193 13.2352 26.4707ZM17.9764 26.4707C17.9764 27.3335 17.2744 28.0355 16.4116 28.0355C15.5489 28.0355 14.8469 27.3335 14.8469 26.4707C14.8469 25.6079 15.5489 24.906 16.4116 24.906C17.2744 24.906 17.9764 25.6079 17.9764 26.4707Z" fill="black"/>
<path d="M11.0324 29.6473C11.1079 29.6473 11.1847 29.6365 11.2607 29.6142C11.6876 29.4884 11.9316 29.0402 11.8058 28.6133L11.6244 27.9982C11.4985 27.5712 11.0499 27.3274 10.6236 27.4531C10.1967 27.579 9.95268 28.0271 10.0785 28.454L10.2599 29.0691C10.3632 29.4199 10.6844 29.6473 11.0324 29.6473Z" fill="black"/>
<path d="M19.1047 21.3836C19.295 21.3836 19.486 21.3165 19.6395 21.1802C19.9723 20.8847 20.0025 20.3753 19.7069 20.0426L19.3847 19.6798C19.0892 19.3471 18.5798 19.317 18.247 19.6125C17.9143 19.9079 17.8841 20.4173 18.1797 20.7501L18.5019 21.1128C18.6611 21.2922 18.8824 21.3836 19.1047 21.3836Z" fill="black"/>
<path d="M23.425 29.4377L23.9691 28.9436C24.2985 28.6443 24.3231 28.1347 24.0239 27.8053C23.7247 27.4759 23.2151 27.4513 22.8856 27.7505L22.3415 28.2446C22.0121 28.5439 21.9874 29.0535 22.2867 29.3829C22.4457 29.5581 22.6642 29.647 22.8835 29.647C23.0767 29.647 23.2707 29.5779 23.425 29.4377Z" fill="black"/>
</g>
</mask>
<g mask="url(#mask0)">
<path d="M-2.19714 2.70544H59.908V55.1508H-2.19714V2.70544Z" fill="black"/>
<path d="M9.58765 33.3039H17.9186V47.028H9.58765V33.3039Z" fill="url(#paint0_linear)"/>
<path d="M21.0532 37.9365H31.9481V51.6606H21.0532V37.9365Z" fill="url(#paint1_linear)"/>
<path d="M34.8245 33.3149H42.9063V51.6164H34.8245V33.3149Z" fill="url(#paint2_linear)"/>
<path d="M46.5583 28.6562H52.6494V34.2763H46.5583V28.6562Z" fill="url(#paint3_linear)"/>
<path d="M47.8743 34.2069H52.6079V43.4549H47.8743V34.2069Z" fill="url(#paint4_linear)"/>
</g>
<defs>
<linearGradient id="paint0_linear" x1="13.8966" y1="62.9141" x2="4.9737" y2="61.1809" gradientUnits="userSpaceOnUse">
<stop stop-color="#F58656"/>
<stop offset="1" stop-color="#FE5626"/>
</linearGradient>
<linearGradient id="paint1_linear" x1="26.6882" y1="67.5466" x2="15.313" y2="64.6572" gradientUnits="userSpaceOnUse">
<stop stop-color="#F58656"/>
<stop offset="1" stop-color="#FE5626"/>
</linearGradient>
<linearGradient id="paint2_linear" x1="39.0046" y1="72.8009" x2="30.1977" y2="71.5565" gradientUnits="userSpaceOnUse">
<stop stop-color="#F58656"/>
<stop offset="1" stop-color="#FE5626"/>
</linearGradient>
<linearGradient id="paint3_linear" x1="49.7088" y1="40.7817" x2="43.6656" y2="38.686" gradientUnits="userSpaceOnUse">
<stop stop-color="#F58656"/>
<stop offset="1" stop-color="#FE5626"/>
</linearGradient>
<linearGradient id="paint4_linear" x1="50.3226" y1="54.1597" x2="45.1988" y2="53.3205" gradientUnits="userSpaceOnUse">
<stop stop-color="#F58656"/>
<stop offset="1" stop-color="#FE5626"/>
</linearGradient>
<clipPath id="clip0">
<rect width="54.8962" height="54.8962" fill="white" transform="translate(0.77478 0.802757)"/>
</clipPath>
</defs>
</svg>
