<svg width="100" height="101" viewBox="0 0 100 101" fill="none" xmlns="http://www.w3.org/2000/svg">
<rect x="8.99683" y="9.79776" width="82.0064" height="82.0064" rx="24" fill="#FE5626"/>
<path d="M63.44 49.8769C66.0853 50.7303 68.0907 52.0529 69.456 53.8449C70.864 55.6369 71.568 57.8556 71.568 60.5009C71.568 64.4689 70.0107 67.6049 66.896 69.9089C63.824 72.1703 59.4507 73.3009 53.776 73.3009H30.8V28.5009H52.56C57.936 28.5009 62.096 29.5249 65.04 31.5729C68.0267 33.5783 69.52 36.4369 69.52 40.1489C69.52 42.3249 68.9867 44.2449 67.92 45.9089C66.896 47.5729 65.4027 48.8956 63.44 49.8769ZM43.28 46.4209H51.344C54.928 46.4209 56.72 44.9489 56.72 42.0049C56.72 39.0609 54.928 37.5889 51.344 37.5889H43.28V46.4209ZM53.264 64.2129C56.9333 64.2129 58.768 62.6556 58.768 59.5409C58.768 56.5116 56.9333 54.9969 53.264 54.9969H43.28V64.2129H53.264Z" fill="white"/>
</svg>
