<svg width="20" height="20" viewBox="0 0 20 20" fill="none" xmlns="http://www.w3.org/2000/svg">
<path d="M2.02479 6.31387C1.4773 5.11163 1.44166 4.21416 1.95153 3.5136C2.28021 2.96839 3.72961 1.56727 4.43847 1.58409C4.5642 1.59399 4.7335 1.69788 4.91368 1.875C5.4978 2.44396 6.94521 4.35467 7.08382 4.71188C7.13629 4.95925 7.01254 5.19079 6.78879 5.57868C6.49079 6.09618 6.0829 6.80466 6.42644 7.74962C7.20757 9.66033 8.40352 11.201 9.98162 12.33C10.1123 12.423 10.2628 12.4685 10.4133 12.4685C10.6449 12.4685 10.8726 12.3597 11.0172 12.1578C11.2558 11.8244 11.1796 11.3613 10.8459 11.1218C9.49849 10.16 8.4748 8.83609 7.81248 7.21629C7.72239 6.9699 7.81347 6.77497 8.07582 6.31882C8.34214 5.85573 8.70746 5.22147 8.53817 4.40909C8.38075 3.65411 6.41852 1.26745 5.95123 0.811298C5.51265 0.383837 5.04536 0.146359 4.5345 0.10381C2.90987 -0.00206545 1.01793 2.18768 0.716965 2.69133C-0.0908961 3.79264 -0.105746 5.21949 0.673404 6.92834C0.843688 7.30237 1.28227 7.46564 1.6565 7.29643C2.02974 7.12624 2.19408 6.68691 2.02479 6.31387Z" fill="white"/>
<path d="M19.1907 14.0434C18.7343 13.5773 16.3493 11.6161 15.5909 11.4588C14.6286 11.2589 13.8633 11.7359 13.3089 12.0852L13.0802 12.2267C12.7288 12.4384 12.6159 12.8946 12.8268 13.2448C13.0386 13.5971 13.495 13.7089 13.8465 13.4982L14.0999 13.3408C14.6009 13.0252 14.9296 12.8332 15.2454 12.9005C15.6454 13.0509 17.5591 14.4985 18.1294 15.0823C18.3046 15.2614 18.4075 15.4306 18.4165 15.5207C18.4432 16.2866 16.9611 17.7589 16.4394 18.0746C15.7701 18.5545 14.8712 18.5198 13.6633 17.9588C10.6774 16.718 5.98471 12.5196 3.41559 8.79015C3.18393 8.45273 2.72159 8.36962 2.383 8.59918C2.0454 8.83171 1.96026 9.2938 2.19291 9.63122C4.9432 13.6238 9.83195 17.9746 13.0644 19.3164C13.9049 19.7082 14.6811 19.9002 15.3801 19.9002C16.083 19.9002 16.7077 19.7062 17.2403 19.3223C17.5205 19.162 19.9629 17.2563 19.8985 15.4326C19.8579 14.9507 19.6203 14.4827 19.1907 14.0434Z" fill="white"/>
</svg>
