<svg width="18" height="21" viewBox="0 0 18 21" fill="none" xmlns="http://www.w3.org/2000/svg">
<path d="M9.0333 0.338829H8.99993C4.32848 0.338829 0.51844 4.12468 0.5 8.8515C0.577272 11.0623 1.32453 13.1626 2.66011 14.9227C4.0993 16.8389 6.28224 18.8682 8.35629 20.2178C8.48274 20.3002 8.62323 20.3388 8.76285 20.3388C9.00696 20.3388 9.24668 20.2196 9.38893 20.0003C9.6146 19.6548 9.51713 19.1935 9.17116 18.969C7.23409 17.7079 5.19604 15.8137 3.85256 14.0247C2.70138 12.5084 2.05861 10.701 1.99276 8.79976C2.00768 4.95077 5.14862 1.82879 8.99993 1.82879H9.02715C12.8916 1.84457 16.022 4.99725 16.0071 8.92692C15.9527 11.7876 14.1649 14.2334 12.6739 15.7804C12.2304 16.2425 11.7589 16.6863 11.2742 17.0993C10.9607 17.3668 10.923 17.8369 11.1908 18.1508C11.4586 18.4639 11.9292 18.5007 12.2427 18.2332C12.7661 17.7877 13.2736 17.3107 13.7504 16.8134C15.4258 15.0744 17.4366 12.2988 17.4999 8.95411C17.4999 8.9506 17.4999 8.86553 17.4999 8.86115C17.5183 4.1808 13.7197 0.357245 9.0333 0.338829Z" fill="black"/>
<path d="M8.99734 10.6929C8.03671 10.6929 7.25521 9.91149 7.25521 8.95297C7.25521 8.54079 6.92065 8.20755 6.50883 8.20755C6.097 8.20755 5.76245 8.54079 5.76245 8.95297C5.76245 10.7341 7.21394 12.1828 8.99734 12.1828C10.7807 12.1828 12.2322 10.7341 12.2322 8.95297C12.2322 7.17098 10.7807 5.72224 8.99734 5.72224C8.58552 5.72224 8.25096 6.05548 8.25096 6.46765C8.25096 6.87895 8.58552 7.2122 8.99734 7.2122C9.95798 7.2122 10.7395 7.99357 10.7395 8.95297C10.7395 9.91149 9.95798 10.6929 8.99734 10.6929Z" fill="#FE5626"/>
</svg>
