<svg width="67" height="66" viewBox="0 0 67 66" fill="none" xmlns="http://www.w3.org/2000/svg">
<mask id="mask0" mask-type="alpha" maskUnits="userSpaceOnUse" x="0" y="0" width="67" height="66">
<g clip-path="url(#clip0)">
<path d="M66.4947 37.0162C66.4437 35.6724 66.0198 34.4191 65.3268 33.3547C65.3083 33.3177 65.2883 33.2813 65.2645 33.246L64.1147 31.5344C58.4406 23.0877 51.1891 16.0493 42.5618 10.6146C42.109 10.3294 41.5108 10.4653 41.2257 10.9179C40.9405 11.3707 41.0763 11.9689 41.529 12.254C49.0913 17.0179 55.5657 23.0491 60.8123 30.2056C60.3915 30.1114 59.958 30.0526 59.5142 30.0357C57.5173 29.9606 55.6277 30.6795 54.1916 32.0621C53.0069 33.2026 52.2632 34.6678 52.0381 36.2693C46.3054 28.5478 38.7443 22.2727 30.0888 18.0721C28.808 17.4505 27.8461 16.3674 27.3798 15.0223C26.9136 13.6772 26.9993 12.231 27.6209 10.9502C28.2425 9.66941 29.3255 8.70729 30.6707 8.24121C32.0159 7.77513 33.4618 7.86078 34.7428 8.48239C35.8285 9.00931 36.93 9.58053 38.0164 10.1801C38.4848 10.4385 39.0741 10.2683 39.3327 9.79988C39.5912 9.33148 39.4211 8.74216 38.9526 8.48355C37.8366 7.86763 36.7049 7.28077 35.5886 6.73912C33.8421 5.89158 31.8702 5.77468 30.0361 6.41049C28.2019 7.04605 26.725 8.35799 25.8775 10.1044C25.4097 11.0682 25.1659 12.1005 25.1469 13.1407L12.0411 26.2017C11.6621 26.5794 11.661 27.1929 12.0386 27.5719C12.2279 27.7618 12.4764 27.8568 12.7249 27.8568C12.9723 27.8568 13.2198 27.7627 13.4088 27.5742L25.5052 15.5193C25.5201 15.565 25.5332 15.611 25.5491 15.6566C25.8803 16.6124 26.3967 17.4699 27.0609 18.1931C26.6899 19.0762 26.493 20.0311 26.493 20.9955C26.493 24.98 29.7346 28.2218 33.7192 28.2218C35.77 28.2218 37.6988 27.3529 39.0585 25.8601C40.4552 26.9249 41.8033 28.0525 43.098 29.239H41.9819C41.4469 29.239 41.0131 29.6728 41.0131 30.2079C41.0131 30.7429 41.4469 31.1767 41.9819 31.1767H45.1132C46.9618 33.0417 48.6863 35.0322 50.2689 37.1365H41.6421C41.6933 36.8607 41.7209 36.5804 41.7209 36.2993C41.7209 33.7438 39.6417 31.6648 37.0863 31.6648C34.5309 31.6648 32.4518 33.7439 32.4518 36.2993C32.4518 36.5803 32.4785 36.8607 32.5298 37.1365H10.3118C10.3444 36.9033 10.3619 36.6672 10.3619 36.4285C10.3619 34.8905 9.64429 33.4423 8.47096 32.4951L10.4811 30.492C10.8601 30.1142 10.8611 29.5008 10.4834 29.1219C10.1057 28.7427 9.49224 28.7418 9.11336 29.1194L1.17405 37.0316C0.739368 37.4646 0.5 38.041 0.5 38.6545V42.2179C0.5 43.5129 1.55358 44.5665 2.84859 44.5665H9.66328C10.1983 44.5665 10.6321 44.1327 10.6321 43.5976C10.6321 43.0626 10.1983 42.6288 9.66328 42.6288H2.84859C2.62202 42.6288 2.43768 42.4445 2.43768 42.2179V39.0742H11.5824C12.2291 40.3254 12.5698 41.7169 12.5698 43.1299V51.7217C12.5698 53.6454 14.1348 55.2104 16.0585 55.2104C17.9822 55.2104 19.5472 53.6454 19.5472 51.7217V49.8525C19.5472 49.3174 19.1135 48.8836 18.5784 48.8836C18.0433 48.8836 17.6096 49.3174 17.6096 49.8525V51.7217C17.6096 52.577 16.9138 53.2727 16.0585 53.2727C15.2032 53.2727 14.5075 52.577 14.5075 51.7217V43.1299C14.5075 41.7354 14.2348 40.3581 13.7128 39.0742H18.7294C17.9961 40.5557 17.6096 42.2008 17.6096 43.8551V45.7237C17.6096 46.2587 18.0433 46.6925 18.5784 46.6925C19.1135 46.6925 19.5472 46.2587 19.5472 45.7237V43.8551C19.5472 42.4018 19.9106 40.9571 20.5981 39.6768L20.9217 39.0742H42.5103V46.7716C42.5103 48.6629 44.049 50.2016 45.9403 50.2016C47.8316 50.2016 49.3704 48.6629 49.3704 46.7716V39.0742H52.1346C52.606 39.0742 53.0495 38.89 53.3839 38.5555C53.718 38.2211 53.902 37.7772 53.9016 37.2984C53.9016 35.8362 54.4819 34.4723 55.5356 33.4579C56.5887 32.4441 57.9776 31.916 59.4407 31.972C62.2055 32.077 64.4534 34.3249 64.5584 37.0897C64.6186 38.6761 63.9618 40.1876 62.8231 41.2322V37.2984C62.8231 36.3166 62.4131 35.3659 61.6982 34.6897C60.9735 34.0042 60.0245 33.6576 59.0287 33.7129C57.1587 33.8171 55.6707 35.3669 55.6413 37.2411C55.6225 38.4227 56.1814 39.5254 57.1411 40.2134V42.6287H52.2768C51.7417 42.6287 51.308 43.0624 51.308 43.5975C51.308 44.1326 51.7417 44.5663 52.2768 44.5663H57.1411V48.16C57.1411 49.7095 58.3293 50.9792 59.846 51.0506C59.8923 51.0528 59.9384 51.0538 59.9844 51.0538C60.718 51.0538 61.4089 50.7778 61.9428 50.2685C62.5022 49.7349 62.8229 48.9857 62.8229 48.2128V43.6173C65.1655 42.2831 66.5978 39.7281 66.4947 37.0162ZM33.7193 26.2842C30.8032 26.2842 28.4308 23.9117 28.4308 20.9957C28.4308 20.485 28.5073 19.9786 28.6508 19.4928C28.8423 19.6083 34.8824 22.8526 37.4856 24.7024C36.5004 25.7043 35.1508 26.2842 33.7193 26.2842ZM34.3895 36.2993C34.3895 34.8122 35.5993 33.6024 37.0863 33.6024C38.5733 33.6024 39.7832 34.8123 39.7832 36.2993C39.7832 36.5881 39.7377 36.8681 39.6496 37.1365H34.523C34.4349 36.8681 34.3895 36.5881 34.3895 36.2993ZM8.4242 36.4285C8.4242 36.6697 8.39629 36.9062 8.34255 37.1365H3.81356L7.08733 33.874C7.92156 34.4493 8.4242 35.3904 8.4242 36.4285ZM47.4327 46.7717C47.4327 47.5945 46.7632 48.2641 45.9403 48.2641C45.1175 48.2641 44.4479 47.5945 44.4479 46.7717V39.0743H47.4326L47.4327 46.7717ZM60.8855 48.2131C60.8855 48.4624 60.786 48.6946 60.6056 48.8668C60.4253 49.0389 60.188 49.127 59.9375 49.1152C59.4642 49.093 59.0791 48.6645 59.0791 48.1601V40.0944C59.0791 39.5233 58.7933 38.9906 58.3147 38.6695C57.8452 38.3545 57.5701 37.832 57.5789 37.2718C57.5924 36.4234 58.2911 35.6947 59.1368 35.6477C59.597 35.6224 60.0332 35.7819 60.367 36.0977C60.7014 36.414 60.8856 36.8404 60.8856 37.2985L60.8855 48.2131Z" fill="black"/>
<path d="M39.6036 42.6289H22.4616C21.9266 42.6289 21.4928 43.0627 21.4928 43.5977C21.4928 44.1328 21.9266 44.5665 22.4616 44.5665H26.5226V55.5648C26.5226 57.3326 27.9609 58.7709 29.7287 58.7709C31.4965 58.7709 32.9348 57.3326 32.9348 55.5648V55.1131C33.324 55.2814 33.7527 55.3752 34.2032 55.3752C35.971 55.3752 37.4093 53.9369 37.4093 52.1691V44.5664H39.6038C40.1388 44.5664 40.5726 44.1326 40.5726 43.5976C40.5726 43.0625 40.1388 42.6289 39.6036 42.6289V42.6289ZM30.997 55.5648C30.997 56.2642 30.4279 56.8332 29.7286 56.8332C29.0292 56.8332 28.4602 56.2642 28.4602 55.5648V44.638H30.997V52.1691V55.5648ZM35.4715 52.1692C35.4715 52.8686 34.9024 53.4376 34.2031 53.4376C33.5037 53.4376 32.9347 52.8686 32.9347 52.1692V44.6381H35.4715V52.1692Z" fill="#FE5626"/>
<path d="M45.9402 51.8898C44.0489 51.8898 42.5101 53.4285 42.5101 55.3198V56.5642C42.5101 58.4555 44.0489 59.9943 45.9402 59.9943C47.8315 59.9943 49.3703 58.4555 49.3703 56.5642V55.3198C49.3703 53.4284 47.8315 51.8898 45.9402 51.8898ZM47.4326 56.5641C47.4326 57.3869 46.7631 58.0565 45.9402 58.0565C45.1173 58.0565 44.4478 57.3869 44.4478 56.5641V55.3197C44.4478 54.4968 45.1173 53.8273 45.9402 53.8273C46.7631 53.8273 47.4326 54.4968 47.4326 55.3197V56.5641Z" fill="black"/>
<path d="M15.4807 30.8598C15.4807 32.9655 17.1939 34.6787 19.2996 34.6787C21.4054 34.6787 23.1185 32.9655 23.1185 30.8598C23.1185 28.754 21.4054 27.0409 19.2996 27.0409C17.1939 27.0409 15.4807 28.754 15.4807 30.8598V30.8598ZM21.1808 30.8598C21.1808 31.8971 20.3369 32.741 19.2996 32.741C18.2623 32.741 17.4184 31.8971 17.4184 30.8598C17.4184 29.8225 18.2623 28.9786 19.2996 28.9786C20.3369 28.9786 21.1808 29.8225 21.1808 30.8598Z" fill="black"/>
<path d="M12.8325 34.6789C12.9233 34.6789 13.0155 34.6659 13.107 34.6391C13.6202 34.4878 13.9136 33.949 13.7623 33.4358L13.5443 32.6962C13.3929 32.1829 12.8536 31.8898 12.341 32.0409C11.8278 32.1922 11.5344 32.731 11.6857 33.2442L11.9037 33.9838C12.028 34.4055 12.4141 34.6789 12.8325 34.6789Z" fill="black"/>
<path d="M22.5375 24.7437C22.7663 24.7437 22.996 24.6631 23.1805 24.4992C23.5806 24.1439 23.6169 23.5315 23.2615 23.1314L22.8741 22.6953C22.5189 22.2952 21.9065 22.2591 21.5064 22.6143C21.1063 22.9695 21.07 23.582 21.4254 23.982L21.8128 24.4182C22.0043 24.6338 22.2702 24.7437 22.5375 24.7437V24.7437Z" fill="black"/>
<path d="M27.7316 34.4269L28.3858 33.8328C28.7818 33.4731 28.8114 32.8604 28.4516 32.4643C28.092 32.0682 27.4793 32.0387 27.0831 32.3984L26.429 32.9925C26.0329 33.3523 26.0033 33.965 26.3631 34.361C26.5543 34.5716 26.817 34.6785 27.0807 34.6785C27.3129 34.6785 27.5461 34.5955 27.7316 34.4269V34.4269Z" fill="black"/>
</g>
</mask>
<g mask="url(#mask0)">
<rect x="-3.07227" y="2.28754" width="74.667" height="63.0533" fill="black"/>
<rect x="11.0952" y="39.0751" width="10.0161" height="16.5" fill="url(#paint0_linear)"/>
<rect x="24.88" y="44.6448" width="13.0985" height="16.5" fill="url(#paint1_linear)"/>
<rect x="41.4365" y="39.0883" width="9.71658" height="22.0033" fill="url(#paint2_linear)"/>
<rect x="55.5438" y="33.4873" width="7.32309" height="6.75684" fill="url(#paint3_linear)"/>
<rect x="57.1254" y="40.1608" width="5.69111" height="11.1185" fill="url(#paint4_linear)"/>
</g>
<defs>
<linearGradient id="paint0_linear" x1="16.2757" y1="74.6744" x2="5.54802" y2="72.5908" gradientUnits="userSpaceOnUse">
<stop stop-color="#F58656"/>
<stop offset="1" stop-color="#FE5626"/>
</linearGradient>
<linearGradient id="paint1_linear" x1="31.6548" y1="80.2441" x2="17.9788" y2="76.7702" gradientUnits="userSpaceOnUse">
<stop stop-color="#F58656"/>
<stop offset="1" stop-color="#FE5626"/>
</linearGradient>
<linearGradient id="paint2_linear" x1="46.4621" y1="86.5611" x2="35.874" y2="85.065" gradientUnits="userSpaceOnUse">
<stop stop-color="#F58656"/>
<stop offset="1" stop-color="#FE5626"/>
</linearGradient>
<linearGradient id="paint3_linear" x1="59.3315" y1="48.0654" x2="52.0659" y2="45.5458" gradientUnits="userSpaceOnUse">
<stop stop-color="#F58656"/>
<stop offset="1" stop-color="#FE5626"/>
</linearGradient>
<linearGradient id="paint4_linear" x1="60.0689" y1="64.1494" x2="53.9087" y2="63.1405" gradientUnits="userSpaceOnUse">
<stop stop-color="#F58656"/>
<stop offset="1" stop-color="#FE5626"/>
</linearGradient>
<clipPath id="clip0">
<rect width="66" height="66" fill="white" transform="translate(0.5)"/>
</clipPath>
</defs>
</svg>
